%TF.GenerationSoftware,KiCad,Pcbnew,(5.1.10)-1*%
%TF.CreationDate,2022-03-08T20:45:29-05:00*%
%TF.ProjectId,PacMan-display,5061634d-616e-42d6-9469-73706c61792e,1.0*%
%TF.SameCoordinates,Original*%
%TF.FileFunction,Soldermask,Top*%
%TF.FilePolarity,Negative*%
%FSLAX46Y46*%
G04 Gerber Fmt 4.6, Leading zero omitted, Abs format (unit mm)*
G04 Created by KiCad (PCBNEW (5.1.10)-1) date 2022-03-08 20:45:29*
%MOMM*%
%LPD*%
G01*
G04 APERTURE LIST*
%ADD10C,1.524000*%
%ADD11R,1.524000X1.524000*%
%ADD12C,1.700000*%
%ADD13R,3.000000X1.400000*%
%ADD14R,1.400000X3.000000*%
%ADD15C,2.844800*%
G04 APERTURE END LIST*
%TO.C,R2*%
G36*
G01*
X168233999Y-119898000D02*
X169134001Y-119898000D01*
G75*
G02*
X169384000Y-120147999I0J-249999D01*
G01*
X169384000Y-120848001D01*
G75*
G02*
X169134001Y-121098000I-249999J0D01*
G01*
X168233999Y-121098000D01*
G75*
G02*
X167984000Y-120848001I0J249999D01*
G01*
X167984000Y-120147999D01*
G75*
G02*
X168233999Y-119898000I249999J0D01*
G01*
G37*
G36*
G01*
X168233999Y-117898000D02*
X169134001Y-117898000D01*
G75*
G02*
X169384000Y-118147999I0J-249999D01*
G01*
X169384000Y-118848001D01*
G75*
G02*
X169134001Y-119098000I-249999J0D01*
G01*
X168233999Y-119098000D01*
G75*
G02*
X167984000Y-118848001I0J249999D01*
G01*
X167984000Y-118147999D01*
G75*
G02*
X168233999Y-117898000I249999J0D01*
G01*
G37*
%TD*%
%TO.C,D2*%
G36*
G01*
X169134001Y-123073000D02*
X168233999Y-123073000D01*
G75*
G02*
X167984000Y-122823001I0J249999D01*
G01*
X167984000Y-122172999D01*
G75*
G02*
X168233999Y-121923000I249999J0D01*
G01*
X169134001Y-121923000D01*
G75*
G02*
X169384000Y-122172999I0J-249999D01*
G01*
X169384000Y-122823001D01*
G75*
G02*
X169134001Y-123073000I-249999J0D01*
G01*
G37*
G36*
G01*
X169134001Y-125123000D02*
X168233999Y-125123000D01*
G75*
G02*
X167984000Y-124873001I0J249999D01*
G01*
X167984000Y-124222999D01*
G75*
G02*
X168233999Y-123973000I249999J0D01*
G01*
X169134001Y-123973000D01*
G75*
G02*
X169384000Y-124222999I0J-249999D01*
G01*
X169384000Y-124873001D01*
G75*
G02*
X169134001Y-125123000I-249999J0D01*
G01*
G37*
%TD*%
%TO.C,D1*%
G36*
G01*
X162634001Y-123073000D02*
X161733999Y-123073000D01*
G75*
G02*
X161484000Y-122823001I0J249999D01*
G01*
X161484000Y-122172999D01*
G75*
G02*
X161733999Y-121923000I249999J0D01*
G01*
X162634001Y-121923000D01*
G75*
G02*
X162884000Y-122172999I0J-249999D01*
G01*
X162884000Y-122823001D01*
G75*
G02*
X162634001Y-123073000I-249999J0D01*
G01*
G37*
G36*
G01*
X162634001Y-125123000D02*
X161733999Y-125123000D01*
G75*
G02*
X161484000Y-124873001I0J249999D01*
G01*
X161484000Y-124222999D01*
G75*
G02*
X161733999Y-123973000I249999J0D01*
G01*
X162634001Y-123973000D01*
G75*
G02*
X162884000Y-124222999I0J-249999D01*
G01*
X162884000Y-124873001D01*
G75*
G02*
X162634001Y-125123000I-249999J0D01*
G01*
G37*
%TD*%
%TO.C,C3*%
G36*
G01*
X176709000Y-119985500D02*
X177659000Y-119985500D01*
G75*
G02*
X177909000Y-120235500I0J-250000D01*
G01*
X177909000Y-120910500D01*
G75*
G02*
X177659000Y-121160500I-250000J0D01*
G01*
X176709000Y-121160500D01*
G75*
G02*
X176459000Y-120910500I0J250000D01*
G01*
X176459000Y-120235500D01*
G75*
G02*
X176709000Y-119985500I250000J0D01*
G01*
G37*
G36*
G01*
X176709000Y-117910500D02*
X177659000Y-117910500D01*
G75*
G02*
X177909000Y-118160500I0J-250000D01*
G01*
X177909000Y-118835500D01*
G75*
G02*
X177659000Y-119085500I-250000J0D01*
G01*
X176709000Y-119085500D01*
G75*
G02*
X176459000Y-118835500I0J250000D01*
G01*
X176459000Y-118160500D01*
G75*
G02*
X176709000Y-117910500I250000J0D01*
G01*
G37*
%TD*%
D10*
%TO.C,U1*%
X145556000Y-121536000D03*
X143016000Y-121536000D03*
X140476000Y-121536000D03*
X137936000Y-121536000D03*
X135396000Y-121536000D03*
X132856000Y-121536000D03*
X130316000Y-121536000D03*
X127776000Y-121536000D03*
X125236000Y-121536000D03*
X122696000Y-121536000D03*
X120156000Y-121536000D03*
X117616000Y-121536000D03*
X115076000Y-121536000D03*
X112536000Y-121536000D03*
X109996000Y-121536000D03*
X107456000Y-121536000D03*
X104916000Y-121536000D03*
X102376000Y-121536000D03*
X99836000Y-121536000D03*
X97296000Y-121536000D03*
X145556000Y-74038000D03*
X143016000Y-74038000D03*
X140476000Y-74038000D03*
X137936000Y-74038000D03*
X135396000Y-74038000D03*
X132856000Y-74038000D03*
X130316000Y-74038000D03*
X127776000Y-74038000D03*
X125236000Y-74038000D03*
X122696000Y-74038000D03*
X120156000Y-74038000D03*
X117616000Y-74038000D03*
X115076000Y-74038000D03*
X112536000Y-74038000D03*
X109996000Y-74038000D03*
X107456000Y-74038000D03*
X104916000Y-74038000D03*
X102376000Y-74038000D03*
X99836000Y-74038000D03*
D11*
X97296000Y-74038000D03*
%TD*%
%TO.C,R1*%
G36*
G01*
X161733999Y-119898000D02*
X162634001Y-119898000D01*
G75*
G02*
X162884000Y-120147999I0J-249999D01*
G01*
X162884000Y-120848001D01*
G75*
G02*
X162634001Y-121098000I-249999J0D01*
G01*
X161733999Y-121098000D01*
G75*
G02*
X161484000Y-120848001I0J249999D01*
G01*
X161484000Y-120147999D01*
G75*
G02*
X161733999Y-119898000I249999J0D01*
G01*
G37*
G36*
G01*
X161733999Y-117898000D02*
X162634001Y-117898000D01*
G75*
G02*
X162884000Y-118147999I0J-249999D01*
G01*
X162884000Y-118848001D01*
G75*
G02*
X162634001Y-119098000I-249999J0D01*
G01*
X161733999Y-119098000D01*
G75*
G02*
X161484000Y-118848001I0J249999D01*
G01*
X161484000Y-118147999D01*
G75*
G02*
X161733999Y-117898000I249999J0D01*
G01*
G37*
%TD*%
D12*
%TO.C,J1*%
X187014000Y-111038000D03*
X184474000Y-111038000D03*
X181934000Y-111038000D03*
X179394000Y-111038000D03*
X176854000Y-111038000D03*
X174314000Y-111038000D03*
X171774000Y-111038000D03*
X169234000Y-111038000D03*
X166694000Y-111038000D03*
X164154000Y-111038000D03*
X187014000Y-108498000D03*
X184474000Y-108498000D03*
X181934000Y-108498000D03*
X179394000Y-108498000D03*
X176854000Y-108498000D03*
X174314000Y-108498000D03*
X171774000Y-108498000D03*
X169234000Y-108498000D03*
X166694000Y-108498000D03*
G36*
G01*
X163554000Y-107648000D02*
X164754000Y-107648000D01*
G75*
G02*
X165004000Y-107898000I0J-250000D01*
G01*
X165004000Y-109098000D01*
G75*
G02*
X164754000Y-109348000I-250000J0D01*
G01*
X163554000Y-109348000D01*
G75*
G02*
X163304000Y-109098000I0J250000D01*
G01*
X163304000Y-107898000D01*
G75*
G02*
X163554000Y-107648000I250000J0D01*
G01*
G37*
%TD*%
%TO.C,C2*%
G36*
G01*
X172709000Y-119985500D02*
X173659000Y-119985500D01*
G75*
G02*
X173909000Y-120235500I0J-250000D01*
G01*
X173909000Y-120910500D01*
G75*
G02*
X173659000Y-121160500I-250000J0D01*
G01*
X172709000Y-121160500D01*
G75*
G02*
X172459000Y-120910500I0J250000D01*
G01*
X172459000Y-120235500D01*
G75*
G02*
X172709000Y-119985500I250000J0D01*
G01*
G37*
G36*
G01*
X172709000Y-117910500D02*
X173659000Y-117910500D01*
G75*
G02*
X173909000Y-118160500I0J-250000D01*
G01*
X173909000Y-118835500D01*
G75*
G02*
X173659000Y-119085500I-250000J0D01*
G01*
X172709000Y-119085500D01*
G75*
G02*
X172459000Y-118835500I0J250000D01*
G01*
X172459000Y-118160500D01*
G75*
G02*
X172709000Y-117910500I250000J0D01*
G01*
G37*
%TD*%
%TO.C,C1*%
G36*
G01*
X157583999Y-120960500D02*
X159784001Y-120960500D01*
G75*
G02*
X160034000Y-121210499I0J-249999D01*
G01*
X160034000Y-122035501D01*
G75*
G02*
X159784001Y-122285500I-249999J0D01*
G01*
X157583999Y-122285500D01*
G75*
G02*
X157334000Y-122035501I0J249999D01*
G01*
X157334000Y-121210499D01*
G75*
G02*
X157583999Y-120960500I249999J0D01*
G01*
G37*
G36*
G01*
X157583999Y-117835500D02*
X159784001Y-117835500D01*
G75*
G02*
X160034000Y-118085499I0J-249999D01*
G01*
X160034000Y-118910501D01*
G75*
G02*
X159784001Y-119160500I-249999J0D01*
G01*
X157583999Y-119160500D01*
G75*
G02*
X157334000Y-118910501I0J249999D01*
G01*
X157334000Y-118085499D01*
G75*
G02*
X157583999Y-117835500I249999J0D01*
G01*
G37*
%TD*%
D13*
%TO.C,BTN5*%
X180184000Y-83898000D03*
X180184000Y-88298000D03*
X170984000Y-88298000D03*
X170984000Y-83898000D03*
%TD*%
%TO.C,BTN4*%
X180184000Y-95898000D03*
X180184000Y-100298000D03*
X170984000Y-100298000D03*
X170984000Y-95898000D03*
%TD*%
%TO.C,BTN3*%
X180184000Y-72498000D03*
X180184000Y-76898000D03*
X170984000Y-76898000D03*
X170984000Y-72498000D03*
%TD*%
D14*
%TO.C,BTN2*%
X191184000Y-90698000D03*
X186784000Y-90698000D03*
X186784000Y-81498000D03*
X191184000Y-81498000D03*
%TD*%
%TO.C,BTN1*%
X164184000Y-90698000D03*
X159784000Y-90698000D03*
X159784000Y-81498000D03*
X164184000Y-81498000D03*
%TD*%
D15*
%TO.C,H4*%
X86184000Y-124498000D03*
%TD*%
%TO.C,H3*%
X193184000Y-124498000D03*
%TD*%
%TO.C,H2*%
X193184000Y-72498000D03*
%TD*%
%TO.C,H1*%
X86184000Y-72498000D03*
%TD*%
M02*
