%TF.GenerationSoftware,KiCad,Pcbnew,(5.1.10)-1*%
%TF.CreationDate,2022-03-08T20:45:29-05:00*%
%TF.ProjectId,PacMan-display,5061634d-616e-42d6-9469-73706c61792e,1.0*%
%TF.SameCoordinates,Original*%
%TF.FileFunction,Soldermask,Bot*%
%TF.FilePolarity,Negative*%
%FSLAX46Y46*%
G04 Gerber Fmt 4.6, Leading zero omitted, Abs format (unit mm)*
G04 Created by KiCad (PCBNEW (5.1.10)-1) date 2022-03-08 20:45:29*
%MOMM*%
%LPD*%
G01*
G04 APERTURE LIST*
%ADD10C,1.524000*%
%ADD11R,1.524000X1.524000*%
%ADD12C,1.700000*%
%ADD13C,2.844800*%
G04 APERTURE END LIST*
D10*
%TO.C,U1*%
X145556000Y-121536000D03*
X143016000Y-121536000D03*
X140476000Y-121536000D03*
X137936000Y-121536000D03*
X135396000Y-121536000D03*
X132856000Y-121536000D03*
X130316000Y-121536000D03*
X127776000Y-121536000D03*
X125236000Y-121536000D03*
X122696000Y-121536000D03*
X120156000Y-121536000D03*
X117616000Y-121536000D03*
X115076000Y-121536000D03*
X112536000Y-121536000D03*
X109996000Y-121536000D03*
X107456000Y-121536000D03*
X104916000Y-121536000D03*
X102376000Y-121536000D03*
X99836000Y-121536000D03*
X97296000Y-121536000D03*
X145556000Y-74038000D03*
X143016000Y-74038000D03*
X140476000Y-74038000D03*
X137936000Y-74038000D03*
X135396000Y-74038000D03*
X132856000Y-74038000D03*
X130316000Y-74038000D03*
X127776000Y-74038000D03*
X125236000Y-74038000D03*
X122696000Y-74038000D03*
X120156000Y-74038000D03*
X117616000Y-74038000D03*
X115076000Y-74038000D03*
X112536000Y-74038000D03*
X109996000Y-74038000D03*
X107456000Y-74038000D03*
X104916000Y-74038000D03*
X102376000Y-74038000D03*
X99836000Y-74038000D03*
D11*
X97296000Y-74038000D03*
%TD*%
D12*
%TO.C,J1*%
X187014000Y-111038000D03*
X184474000Y-111038000D03*
X181934000Y-111038000D03*
X179394000Y-111038000D03*
X176854000Y-111038000D03*
X174314000Y-111038000D03*
X171774000Y-111038000D03*
X169234000Y-111038000D03*
X166694000Y-111038000D03*
X164154000Y-111038000D03*
X187014000Y-108498000D03*
X184474000Y-108498000D03*
X181934000Y-108498000D03*
X179394000Y-108498000D03*
X176854000Y-108498000D03*
X174314000Y-108498000D03*
X171774000Y-108498000D03*
X169234000Y-108498000D03*
X166694000Y-108498000D03*
G36*
G01*
X163554000Y-107648000D02*
X164754000Y-107648000D01*
G75*
G02*
X165004000Y-107898000I0J-250000D01*
G01*
X165004000Y-109098000D01*
G75*
G02*
X164754000Y-109348000I-250000J0D01*
G01*
X163554000Y-109348000D01*
G75*
G02*
X163304000Y-109098000I0J250000D01*
G01*
X163304000Y-107898000D01*
G75*
G02*
X163554000Y-107648000I250000J0D01*
G01*
G37*
%TD*%
D13*
%TO.C,H4*%
X86184000Y-124498000D03*
%TD*%
%TO.C,H3*%
X193184000Y-124498000D03*
%TD*%
%TO.C,H2*%
X193184000Y-72498000D03*
%TD*%
%TO.C,H1*%
X86184000Y-72498000D03*
%TD*%
M02*
