%TF.GenerationSoftware,KiCad,Pcbnew,(5.1.10)-1*%
%TF.CreationDate,2022-03-08T20:45:29-05:00*%
%TF.ProjectId,PacMan-display,5061634d-616e-42d6-9469-73706c61792e,1.0*%
%TF.SameCoordinates,Original*%
%TF.FileFunction,Legend,Bot*%
%TF.FilePolarity,Positive*%
%FSLAX46Y46*%
G04 Gerber Fmt 4.6, Leading zero omitted, Abs format (unit mm)*
G04 Created by KiCad (PCBNEW (5.1.10)-1) date 2022-03-08 20:45:29*
%MOMM*%
%LPD*%
G01*
G04 APERTURE LIST*
%ADD10C,0.150000*%
%ADD11C,0.010000*%
%ADD12C,0.120000*%
G04 APERTURE END LIST*
D10*
X187848404Y-81950380D02*
X187848404Y-80950380D01*
X187610309Y-80950380D01*
X187467452Y-80998000D01*
X187372214Y-81093238D01*
X187324595Y-81188476D01*
X187276976Y-81378952D01*
X187276976Y-81521809D01*
X187324595Y-81712285D01*
X187372214Y-81807523D01*
X187467452Y-81902761D01*
X187610309Y-81950380D01*
X187848404Y-81950380D01*
X186467452Y-81902761D02*
X186562690Y-81950380D01*
X186753166Y-81950380D01*
X186848404Y-81902761D01*
X186896023Y-81807523D01*
X186896023Y-81426571D01*
X186848404Y-81331333D01*
X186753166Y-81283714D01*
X186562690Y-81283714D01*
X186467452Y-81331333D01*
X186419833Y-81426571D01*
X186419833Y-81521809D01*
X186896023Y-81617047D01*
X186038880Y-81902761D02*
X185943642Y-81950380D01*
X185753166Y-81950380D01*
X185657928Y-81902761D01*
X185610309Y-81807523D01*
X185610309Y-81759904D01*
X185657928Y-81664666D01*
X185753166Y-81617047D01*
X185896023Y-81617047D01*
X185991261Y-81569428D01*
X186038880Y-81474190D01*
X186038880Y-81426571D01*
X185991261Y-81331333D01*
X185896023Y-81283714D01*
X185753166Y-81283714D01*
X185657928Y-81331333D01*
X185181738Y-81950380D02*
X185181738Y-81283714D01*
X185181738Y-80950380D02*
X185229357Y-80998000D01*
X185181738Y-81045619D01*
X185134119Y-80998000D01*
X185181738Y-80950380D01*
X185181738Y-81045619D01*
X184276976Y-81283714D02*
X184276976Y-82093238D01*
X184324595Y-82188476D01*
X184372214Y-82236095D01*
X184467452Y-82283714D01*
X184610309Y-82283714D01*
X184705547Y-82236095D01*
X184276976Y-81902761D02*
X184372214Y-81950380D01*
X184562690Y-81950380D01*
X184657928Y-81902761D01*
X184705547Y-81855142D01*
X184753166Y-81759904D01*
X184753166Y-81474190D01*
X184705547Y-81378952D01*
X184657928Y-81331333D01*
X184562690Y-81283714D01*
X184372214Y-81283714D01*
X184276976Y-81331333D01*
X183800785Y-81283714D02*
X183800785Y-81950380D01*
X183800785Y-81378952D02*
X183753166Y-81331333D01*
X183657928Y-81283714D01*
X183515071Y-81283714D01*
X183419833Y-81331333D01*
X183372214Y-81426571D01*
X183372214Y-81950380D01*
X182515071Y-81902761D02*
X182610309Y-81950380D01*
X182800785Y-81950380D01*
X182896023Y-81902761D01*
X182943642Y-81807523D01*
X182943642Y-81426571D01*
X182896023Y-81331333D01*
X182800785Y-81283714D01*
X182610309Y-81283714D01*
X182515071Y-81331333D01*
X182467452Y-81426571D01*
X182467452Y-81521809D01*
X182943642Y-81617047D01*
X181610309Y-81950380D02*
X181610309Y-80950380D01*
X181610309Y-81902761D02*
X181705547Y-81950380D01*
X181896023Y-81950380D01*
X181991261Y-81902761D01*
X182038880Y-81855142D01*
X182086500Y-81759904D01*
X182086500Y-81474190D01*
X182038880Y-81378952D01*
X181991261Y-81331333D01*
X181896023Y-81283714D01*
X181705547Y-81283714D01*
X181610309Y-81331333D01*
X180372214Y-81950380D02*
X180372214Y-80950380D01*
X180372214Y-81331333D02*
X180276976Y-81283714D01*
X180086500Y-81283714D01*
X179991261Y-81331333D01*
X179943642Y-81378952D01*
X179896023Y-81474190D01*
X179896023Y-81759904D01*
X179943642Y-81855142D01*
X179991261Y-81902761D01*
X180086500Y-81950380D01*
X180276976Y-81950380D01*
X180372214Y-81902761D01*
X179562690Y-81283714D02*
X179324595Y-81950380D01*
X179086500Y-81283714D02*
X179324595Y-81950380D01*
X179419833Y-82188476D01*
X179467452Y-82236095D01*
X179562690Y-82283714D01*
X178705547Y-81855142D02*
X178657928Y-81902761D01*
X178705547Y-81950380D01*
X178753166Y-81902761D01*
X178705547Y-81855142D01*
X178705547Y-81950380D01*
X178705547Y-81331333D02*
X178657928Y-81378952D01*
X178705547Y-81426571D01*
X178753166Y-81378952D01*
X178705547Y-81331333D01*
X178705547Y-81426571D01*
X187372214Y-72125380D02*
X187848404Y-72125380D01*
X187848404Y-71125380D01*
X186610309Y-72125380D02*
X186610309Y-71601571D01*
X186657928Y-71506333D01*
X186753166Y-71458714D01*
X186943642Y-71458714D01*
X187038880Y-71506333D01*
X186610309Y-72077761D02*
X186705547Y-72125380D01*
X186943642Y-72125380D01*
X187038880Y-72077761D01*
X187086500Y-71982523D01*
X187086500Y-71887285D01*
X187038880Y-71792047D01*
X186943642Y-71744428D01*
X186705547Y-71744428D01*
X186610309Y-71696809D01*
X186276976Y-71458714D02*
X185896023Y-71458714D01*
X186134119Y-72125380D02*
X186134119Y-71268238D01*
X186086500Y-71173000D01*
X185991261Y-71125380D01*
X185896023Y-71125380D01*
X185134119Y-72125380D02*
X185134119Y-71601571D01*
X185181738Y-71506333D01*
X185276976Y-71458714D01*
X185467452Y-71458714D01*
X185562690Y-71506333D01*
X185134119Y-72077761D02*
X185229357Y-72125380D01*
X185467452Y-72125380D01*
X185562690Y-72077761D01*
X185610309Y-71982523D01*
X185610309Y-71887285D01*
X185562690Y-71792047D01*
X185467452Y-71744428D01*
X185229357Y-71744428D01*
X185134119Y-71696809D01*
X184753166Y-71458714D02*
X184515071Y-72125380D01*
X184276976Y-71458714D02*
X184515071Y-72125380D01*
X184610309Y-72363476D01*
X184657928Y-72411095D01*
X184753166Y-72458714D01*
X183515071Y-72077761D02*
X183610309Y-72125380D01*
X183800785Y-72125380D01*
X183896023Y-72077761D01*
X183943642Y-71982523D01*
X183943642Y-71601571D01*
X183896023Y-71506333D01*
X183800785Y-71458714D01*
X183610309Y-71458714D01*
X183515071Y-71506333D01*
X183467452Y-71601571D01*
X183467452Y-71696809D01*
X183943642Y-71792047D01*
X183181738Y-71458714D02*
X182800785Y-71458714D01*
X183038880Y-71125380D02*
X183038880Y-71982523D01*
X182991261Y-72077761D01*
X182896023Y-72125380D01*
X182800785Y-72125380D01*
X182610309Y-71458714D02*
X182229357Y-71458714D01*
X182467452Y-71125380D02*
X182467452Y-71982523D01*
X182419833Y-72077761D01*
X182324595Y-72125380D01*
X182229357Y-72125380D01*
X181515071Y-72077761D02*
X181610309Y-72125380D01*
X181800785Y-72125380D01*
X181896023Y-72077761D01*
X181943642Y-71982523D01*
X181943642Y-71601571D01*
X181896023Y-71506333D01*
X181800785Y-71458714D01*
X181610309Y-71458714D01*
X181515071Y-71506333D01*
X181467452Y-71601571D01*
X181467452Y-71696809D01*
X181943642Y-71792047D01*
X179705547Y-72030142D02*
X179753166Y-72077761D01*
X179896023Y-72125380D01*
X179991261Y-72125380D01*
X180134119Y-72077761D01*
X180229357Y-71982523D01*
X180276976Y-71887285D01*
X180324595Y-71696809D01*
X180324595Y-71553952D01*
X180276976Y-71363476D01*
X180229357Y-71268238D01*
X180134119Y-71173000D01*
X179991261Y-71125380D01*
X179896023Y-71125380D01*
X179753166Y-71173000D01*
X179705547Y-71220619D01*
X179134119Y-72125380D02*
X179229357Y-72077761D01*
X179276976Y-72030142D01*
X179324595Y-71934904D01*
X179324595Y-71649190D01*
X179276976Y-71553952D01*
X179229357Y-71506333D01*
X179134119Y-71458714D01*
X178991261Y-71458714D01*
X178896023Y-71506333D01*
X178848404Y-71553952D01*
X178800785Y-71649190D01*
X178800785Y-71934904D01*
X178848404Y-72030142D01*
X178896023Y-72077761D01*
X178991261Y-72125380D01*
X179134119Y-72125380D01*
X178229357Y-72125380D02*
X178324595Y-72077761D01*
X178372214Y-71982523D01*
X178372214Y-71125380D01*
X177705547Y-72125380D02*
X177800785Y-72077761D01*
X177848404Y-71982523D01*
X177848404Y-71125380D01*
X176943642Y-72077761D02*
X177038880Y-72125380D01*
X177229357Y-72125380D01*
X177324595Y-72077761D01*
X177372214Y-71982523D01*
X177372214Y-71601571D01*
X177324595Y-71506333D01*
X177229357Y-71458714D01*
X177038880Y-71458714D01*
X176943642Y-71506333D01*
X176896023Y-71601571D01*
X176896023Y-71696809D01*
X177372214Y-71792047D01*
X176038880Y-71458714D02*
X176038880Y-72268238D01*
X176086500Y-72363476D01*
X176134119Y-72411095D01*
X176229357Y-72458714D01*
X176372214Y-72458714D01*
X176467452Y-72411095D01*
X176038880Y-72077761D02*
X176134119Y-72125380D01*
X176324595Y-72125380D01*
X176419833Y-72077761D01*
X176467452Y-72030142D01*
X176515071Y-71934904D01*
X176515071Y-71649190D01*
X176467452Y-71553952D01*
X176419833Y-71506333D01*
X176324595Y-71458714D01*
X176134119Y-71458714D01*
X176038880Y-71506333D01*
X175181738Y-72077761D02*
X175276976Y-72125380D01*
X175467452Y-72125380D01*
X175562690Y-72077761D01*
X175610309Y-71982523D01*
X175610309Y-71601571D01*
X175562690Y-71506333D01*
X175467452Y-71458714D01*
X175276976Y-71458714D01*
X175181738Y-71506333D01*
X175134119Y-71601571D01*
X175134119Y-71696809D01*
X175610309Y-71792047D01*
X187848404Y-73251571D02*
X187515071Y-73251571D01*
X187372214Y-73775380D02*
X187848404Y-73775380D01*
X187848404Y-72775380D01*
X187372214Y-72775380D01*
X186372214Y-73680142D02*
X186419833Y-73727761D01*
X186562690Y-73775380D01*
X186657928Y-73775380D01*
X186800785Y-73727761D01*
X186896023Y-73632523D01*
X186943642Y-73537285D01*
X186991261Y-73346809D01*
X186991261Y-73203952D01*
X186943642Y-73013476D01*
X186896023Y-72918238D01*
X186800785Y-72823000D01*
X186657928Y-72775380D01*
X186562690Y-72775380D01*
X186419833Y-72823000D01*
X186372214Y-72870619D01*
X185943642Y-73251571D02*
X185610309Y-73251571D01*
X185467452Y-73775380D02*
X185943642Y-73775380D01*
X185943642Y-72775380D01*
X185467452Y-72775380D01*
X184276976Y-73775380D02*
X184276976Y-72775380D01*
X184038880Y-72775380D01*
X183896023Y-72823000D01*
X183800785Y-72918238D01*
X183753166Y-73013476D01*
X183705547Y-73203952D01*
X183705547Y-73346809D01*
X183753166Y-73537285D01*
X183800785Y-73632523D01*
X183896023Y-73727761D01*
X184038880Y-73775380D01*
X184276976Y-73775380D01*
X182896023Y-73727761D02*
X182991261Y-73775380D01*
X183181738Y-73775380D01*
X183276976Y-73727761D01*
X183324595Y-73632523D01*
X183324595Y-73251571D01*
X183276976Y-73156333D01*
X183181738Y-73108714D01*
X182991261Y-73108714D01*
X182896023Y-73156333D01*
X182848404Y-73251571D01*
X182848404Y-73346809D01*
X183324595Y-73442047D01*
X182419833Y-73108714D02*
X182419833Y-74108714D01*
X182419833Y-73156333D02*
X182324595Y-73108714D01*
X182134119Y-73108714D01*
X182038880Y-73156333D01*
X181991261Y-73203952D01*
X181943642Y-73299190D01*
X181943642Y-73584904D01*
X181991261Y-73680142D01*
X182038880Y-73727761D01*
X182134119Y-73775380D01*
X182324595Y-73775380D01*
X182419833Y-73727761D01*
X181086500Y-73775380D02*
X181086500Y-73251571D01*
X181134119Y-73156333D01*
X181229357Y-73108714D01*
X181419833Y-73108714D01*
X181515071Y-73156333D01*
X181086500Y-73727761D02*
X181181738Y-73775380D01*
X181419833Y-73775380D01*
X181515071Y-73727761D01*
X181562690Y-73632523D01*
X181562690Y-73537285D01*
X181515071Y-73442047D01*
X181419833Y-73394428D01*
X181181738Y-73394428D01*
X181086500Y-73346809D01*
X180610309Y-73775380D02*
X180610309Y-73108714D01*
X180610309Y-73299190D02*
X180562690Y-73203952D01*
X180515071Y-73156333D01*
X180419833Y-73108714D01*
X180324595Y-73108714D01*
X180134119Y-73108714D02*
X179753166Y-73108714D01*
X179991261Y-72775380D02*
X179991261Y-73632523D01*
X179943642Y-73727761D01*
X179848404Y-73775380D01*
X179753166Y-73775380D01*
X179419833Y-73775380D02*
X179419833Y-73108714D01*
X179419833Y-73203952D02*
X179372214Y-73156333D01*
X179276976Y-73108714D01*
X179134119Y-73108714D01*
X179038880Y-73156333D01*
X178991261Y-73251571D01*
X178991261Y-73775380D01*
X178991261Y-73251571D02*
X178943642Y-73156333D01*
X178848404Y-73108714D01*
X178705547Y-73108714D01*
X178610309Y-73156333D01*
X178562690Y-73251571D01*
X178562690Y-73775380D01*
X177705547Y-73727761D02*
X177800785Y-73775380D01*
X177991261Y-73775380D01*
X178086500Y-73727761D01*
X178134119Y-73632523D01*
X178134119Y-73251571D01*
X178086500Y-73156333D01*
X177991261Y-73108714D01*
X177800785Y-73108714D01*
X177705547Y-73156333D01*
X177657928Y-73251571D01*
X177657928Y-73346809D01*
X178134119Y-73442047D01*
X177229357Y-73108714D02*
X177229357Y-73775380D01*
X177229357Y-73203952D02*
X177181738Y-73156333D01*
X177086500Y-73108714D01*
X176943642Y-73108714D01*
X176848404Y-73156333D01*
X176800785Y-73251571D01*
X176800785Y-73775380D01*
X176467452Y-73108714D02*
X176086500Y-73108714D01*
X176324595Y-72775380D02*
X176324595Y-73632523D01*
X176276976Y-73727761D01*
X176181738Y-73775380D01*
X176086500Y-73775380D01*
D11*
%TO.C,LOGO1*%
G36*
X170145583Y-70593000D02*
G01*
X170159566Y-70747005D01*
X170189504Y-70826567D01*
X170248167Y-70858795D01*
X170272900Y-70863233D01*
X170365153Y-70851716D01*
X170386940Y-70812433D01*
X170361366Y-70731675D01*
X170297011Y-70604952D01*
X170259623Y-70542200D01*
X170132566Y-70339000D01*
X170145583Y-70593000D01*
G37*
X170145583Y-70593000D02*
X170159566Y-70747005D01*
X170189504Y-70826567D01*
X170248167Y-70858795D01*
X170272900Y-70863233D01*
X170365153Y-70851716D01*
X170386940Y-70812433D01*
X170361366Y-70731675D01*
X170297011Y-70604952D01*
X170259623Y-70542200D01*
X170132566Y-70339000D01*
X170145583Y-70593000D01*
G36*
X168976554Y-70456376D02*
G01*
X168969864Y-70554900D01*
X168991583Y-70749668D01*
X169042743Y-70855029D01*
X169128732Y-70880285D01*
X169155401Y-70875398D01*
X169269801Y-70847000D01*
X169162792Y-70631100D01*
X169076460Y-70481533D01*
X169012976Y-70422737D01*
X168976554Y-70456376D01*
G37*
X168976554Y-70456376D02*
X168969864Y-70554900D01*
X168991583Y-70749668D01*
X169042743Y-70855029D01*
X169128732Y-70880285D01*
X169155401Y-70875398D01*
X169269801Y-70847000D01*
X169162792Y-70631100D01*
X169076460Y-70481533D01*
X169012976Y-70422737D01*
X168976554Y-70456376D01*
G36*
X168403822Y-71613581D02*
G01*
X168399677Y-71624617D01*
X168380927Y-71746733D01*
X168388326Y-71900184D01*
X168389966Y-71910874D01*
X168422380Y-72034453D01*
X168480554Y-72084768D01*
X168543071Y-72091600D01*
X168631250Y-72077140D01*
X168642202Y-72014544D01*
X168632373Y-71977300D01*
X168587100Y-71852239D01*
X168523569Y-71702493D01*
X168518308Y-71691042D01*
X168464659Y-71584592D01*
X168432380Y-71562066D01*
X168403822Y-71613581D01*
G37*
X168403822Y-71613581D02*
X168399677Y-71624617D01*
X168380927Y-71746733D01*
X168388326Y-71900184D01*
X168389966Y-71910874D01*
X168422380Y-72034453D01*
X168480554Y-72084768D01*
X168543071Y-72091600D01*
X168631250Y-72077140D01*
X168642202Y-72014544D01*
X168632373Y-71977300D01*
X168587100Y-71852239D01*
X168523569Y-71702493D01*
X168518308Y-71691042D01*
X168464659Y-71584592D01*
X168432380Y-71562066D01*
X168403822Y-71613581D01*
G36*
X171354692Y-71635307D02*
G01*
X171378134Y-71826404D01*
X171435787Y-71970774D01*
X171516694Y-72047253D01*
X171570412Y-72052068D01*
X171630894Y-72003048D01*
X171617789Y-71895153D01*
X171530226Y-71724691D01*
X171472228Y-71635307D01*
X171352400Y-71458415D01*
X171354692Y-71635307D01*
G37*
X171354692Y-71635307D02*
X171378134Y-71826404D01*
X171435787Y-71970774D01*
X171516694Y-72047253D01*
X171570412Y-72052068D01*
X171630894Y-72003048D01*
X171617789Y-71895153D01*
X171530226Y-71724691D01*
X171472228Y-71635307D01*
X171352400Y-71458415D01*
X171354692Y-71635307D01*
G36*
X170268178Y-71019079D02*
G01*
X170160008Y-71101835D01*
X170076046Y-71232574D01*
X170054498Y-71296086D01*
X170050120Y-71482898D01*
X170107986Y-71699120D01*
X170214632Y-71906406D01*
X170310472Y-72025031D01*
X170469165Y-72141776D01*
X170634891Y-72196598D01*
X170782184Y-72186441D01*
X170885583Y-72108252D01*
X170893413Y-72094939D01*
X170947076Y-71894625D01*
X170923749Y-71668434D01*
X170834941Y-71440398D01*
X170692158Y-71234549D01*
X170506907Y-71074918D01*
X170373348Y-71008818D01*
X170268178Y-71019079D01*
G37*
X170268178Y-71019079D02*
X170160008Y-71101835D01*
X170076046Y-71232574D01*
X170054498Y-71296086D01*
X170050120Y-71482898D01*
X170107986Y-71699120D01*
X170214632Y-71906406D01*
X170310472Y-72025031D01*
X170469165Y-72141776D01*
X170634891Y-72196598D01*
X170782184Y-72186441D01*
X170885583Y-72108252D01*
X170893413Y-72094939D01*
X170947076Y-71894625D01*
X170923749Y-71668434D01*
X170834941Y-71440398D01*
X170692158Y-71234549D01*
X170506907Y-71074918D01*
X170373348Y-71008818D01*
X170268178Y-71019079D01*
G36*
X169027656Y-71096199D02*
G01*
X168949314Y-71220085D01*
X168918072Y-71394009D01*
X168942171Y-71605327D01*
X169022535Y-71826525D01*
X169126794Y-71986053D01*
X169264166Y-72125194D01*
X169405822Y-72218730D01*
X169499597Y-72243810D01*
X169577079Y-72217083D01*
X169664697Y-72164919D01*
X169754718Y-72044619D01*
X169785351Y-71869858D01*
X169761428Y-71664905D01*
X169687782Y-71454028D01*
X169569245Y-71261495D01*
X169462834Y-71151209D01*
X169292659Y-71049117D01*
X169144852Y-71034995D01*
X169027656Y-71096199D01*
G37*
X169027656Y-71096199D02*
X168949314Y-71220085D01*
X168918072Y-71394009D01*
X168942171Y-71605327D01*
X169022535Y-71826525D01*
X169126794Y-71986053D01*
X169264166Y-72125194D01*
X169405822Y-72218730D01*
X169499597Y-72243810D01*
X169577079Y-72217083D01*
X169664697Y-72164919D01*
X169754718Y-72044619D01*
X169785351Y-71869858D01*
X169761428Y-71664905D01*
X169687782Y-71454028D01*
X169569245Y-71261495D01*
X169462834Y-71151209D01*
X169292659Y-71049117D01*
X169144852Y-71034995D01*
X169027656Y-71096199D01*
G36*
X168426876Y-72278305D02*
G01*
X168341856Y-72371036D01*
X168319045Y-72506910D01*
X168354583Y-72670648D01*
X168444611Y-72846968D01*
X168585268Y-73020589D01*
X168772695Y-73176231D01*
X168821338Y-73207468D01*
X169025778Y-73296616D01*
X169193136Y-73293015D01*
X169291372Y-73230971D01*
X169354454Y-73139585D01*
X169362346Y-73029092D01*
X169313524Y-72874484D01*
X169262859Y-72763473D01*
X169127789Y-72560719D01*
X168947331Y-72392671D01*
X168749096Y-72280272D01*
X168577966Y-72244000D01*
X168426876Y-72278305D01*
G37*
X168426876Y-72278305D02*
X168341856Y-72371036D01*
X168319045Y-72506910D01*
X168354583Y-72670648D01*
X168444611Y-72846968D01*
X168585268Y-73020589D01*
X168772695Y-73176231D01*
X168821338Y-73207468D01*
X169025778Y-73296616D01*
X169193136Y-73293015D01*
X169291372Y-73230971D01*
X169354454Y-73139585D01*
X169362346Y-73029092D01*
X169313524Y-72874484D01*
X169262859Y-72763473D01*
X169127789Y-72560719D01*
X168947331Y-72392671D01*
X168749096Y-72280272D01*
X168577966Y-72244000D01*
X168426876Y-72278305D01*
G36*
X171505196Y-72223348D02*
G01*
X171363499Y-72309424D01*
X171263788Y-72452387D01*
X171213147Y-72631825D01*
X171218655Y-72827322D01*
X171287395Y-73018466D01*
X171365463Y-73126483D01*
X171531842Y-73255342D01*
X171704890Y-73282973D01*
X171791465Y-73259954D01*
X171945078Y-73146412D01*
X172037403Y-72958379D01*
X172063600Y-72743529D01*
X172024490Y-72508204D01*
X171912902Y-72332562D01*
X171737450Y-72228539D01*
X171681799Y-72214575D01*
X171505196Y-72223348D01*
G37*
X171505196Y-72223348D02*
X171363499Y-72309424D01*
X171263788Y-72452387D01*
X171213147Y-72631825D01*
X171218655Y-72827322D01*
X171287395Y-73018466D01*
X171365463Y-73126483D01*
X171531842Y-73255342D01*
X171704890Y-73282973D01*
X171791465Y-73259954D01*
X171945078Y-73146412D01*
X172037403Y-72958379D01*
X172063600Y-72743529D01*
X172024490Y-72508204D01*
X171912902Y-72332562D01*
X171737450Y-72228539D01*
X171681799Y-72214575D01*
X171505196Y-72223348D01*
G36*
X169789229Y-72711705D02*
G01*
X169685034Y-72766517D01*
X169684706Y-72766910D01*
X169655846Y-72852021D01*
X169640618Y-72999514D01*
X169640386Y-73109810D01*
X169635307Y-73305327D01*
X169595116Y-73448285D01*
X169533185Y-73551617D01*
X169414949Y-73784076D01*
X169391231Y-74007766D01*
X169460643Y-74210177D01*
X169621797Y-74378800D01*
X169625200Y-74381216D01*
X169801361Y-74479867D01*
X169957010Y-74497624D01*
X170128745Y-74437619D01*
X170150585Y-74426193D01*
X170279710Y-74363965D01*
X170369546Y-74351399D01*
X170467437Y-74385084D01*
X170500105Y-74401025D01*
X170668969Y-74467275D01*
X170793754Y-74464904D01*
X170903145Y-74395810D01*
X170968395Y-74347654D01*
X171038078Y-74339624D01*
X171149234Y-74371721D01*
X171213644Y-74395810D01*
X171451427Y-74466670D01*
X171625395Y-74469490D01*
X171747991Y-74403367D01*
X171787606Y-74354131D01*
X171838757Y-74196118D01*
X171796856Y-74016752D01*
X171660539Y-73812913D01*
X171463468Y-73612684D01*
X171291106Y-73435233D01*
X171128924Y-73232112D01*
X171022200Y-73065179D01*
X170889787Y-72857751D01*
X170753408Y-72741904D01*
X170595162Y-72708579D01*
X170397150Y-72748716D01*
X170396990Y-72748769D01*
X170235300Y-72786578D01*
X170119615Y-72770236D01*
X170093072Y-72757711D01*
X169939260Y-72708454D01*
X169789229Y-72711705D01*
G37*
X169789229Y-72711705D02*
X169685034Y-72766517D01*
X169684706Y-72766910D01*
X169655846Y-72852021D01*
X169640618Y-72999514D01*
X169640386Y-73109810D01*
X169635307Y-73305327D01*
X169595116Y-73448285D01*
X169533185Y-73551617D01*
X169414949Y-73784076D01*
X169391231Y-74007766D01*
X169460643Y-74210177D01*
X169621797Y-74378800D01*
X169625200Y-74381216D01*
X169801361Y-74479867D01*
X169957010Y-74497624D01*
X170128745Y-74437619D01*
X170150585Y-74426193D01*
X170279710Y-74363965D01*
X170369546Y-74351399D01*
X170467437Y-74385084D01*
X170500105Y-74401025D01*
X170668969Y-74467275D01*
X170793754Y-74464904D01*
X170903145Y-74395810D01*
X170968395Y-74347654D01*
X171038078Y-74339624D01*
X171149234Y-74371721D01*
X171213644Y-74395810D01*
X171451427Y-74466670D01*
X171625395Y-74469490D01*
X171747991Y-74403367D01*
X171787606Y-74354131D01*
X171838757Y-74196118D01*
X171796856Y-74016752D01*
X171660539Y-73812913D01*
X171463468Y-73612684D01*
X171291106Y-73435233D01*
X171128924Y-73232112D01*
X171022200Y-73065179D01*
X170889787Y-72857751D01*
X170753408Y-72741904D01*
X170595162Y-72708579D01*
X170397150Y-72748716D01*
X170396990Y-72748769D01*
X170235300Y-72786578D01*
X170119615Y-72770236D01*
X170093072Y-72757711D01*
X169939260Y-72708454D01*
X169789229Y-72711705D01*
D12*
%TO.C,J1*%
X164654000Y-103818000D02*
X164154000Y-104818000D01*
X163654000Y-103818000D02*
X164654000Y-103818000D01*
X164154000Y-104818000D02*
X163654000Y-103818000D01*
X177634000Y-106518000D02*
X177634000Y-105208000D01*
X177634000Y-106518000D02*
X177634000Y-106518000D01*
X190924000Y-106518000D02*
X177634000Y-106518000D01*
X190924000Y-113018000D02*
X190924000Y-106518000D01*
X160244000Y-113018000D02*
X190924000Y-113018000D01*
X160244000Y-106518000D02*
X160244000Y-113018000D01*
X173534000Y-106518000D02*
X160244000Y-106518000D01*
X173534000Y-105208000D02*
X173534000Y-106518000D01*
X192224000Y-105208000D02*
X158944000Y-105208000D01*
X192224000Y-114328000D02*
X192224000Y-105208000D01*
X158944000Y-114328000D02*
X192224000Y-114328000D01*
X158944000Y-105208000D02*
X158944000Y-114328000D01*
D10*
X176017333Y-114950380D02*
X176017333Y-115664666D01*
X176064952Y-115807523D01*
X176160190Y-115902761D01*
X176303047Y-115950380D01*
X176398285Y-115950380D01*
X175017333Y-115950380D02*
X175588761Y-115950380D01*
X175303047Y-115950380D02*
X175303047Y-114950380D01*
X175398285Y-115093238D01*
X175493523Y-115188476D01*
X175588761Y-115236095D01*
%TD*%
M02*
