M48
; DRILL file {KiCad (5.1.10)-1} date 03/09/22 11:47:09
; FORMAT={-:-/ absolute / inch / decimal}
; #@! TF.CreationDate,2022-03-09T11:47:09-05:00
; #@! TF.GenerationSoftware,Kicad,Pcbnew,(5.1.10)-1
FMAT,2
INCH
T1C0.0157
T2C0.0300
T3C0.0394
T4C0.1120
%
G90
G05
T1
X4.2198Y-4.8621
X4.4285Y-4.1535
X4.7582Y-4.1535
X6.9167Y-4.6456
X7.4679Y-4.1731
T2
X3.8306Y-2.9149
X3.8306Y-4.7849
X3.9306Y-2.9149
X3.9306Y-4.7849
X4.0306Y-2.9149
X4.0306Y-4.7849
X4.1306Y-2.9149
X4.1306Y-4.7849
X4.2306Y-2.9149
X4.2306Y-4.7849
X4.3306Y-2.9149
X4.3306Y-4.7849
X4.4306Y-2.9149
X4.4306Y-4.7849
X4.5306Y-2.9149
X4.5306Y-4.7849
X4.6306Y-2.9149
X4.6306Y-4.7849
X4.7306Y-2.9149
X4.7306Y-4.7849
X4.8306Y-2.9149
X4.8306Y-4.7849
X4.9306Y-2.9149
X4.9306Y-4.7849
X5.0306Y-2.9149
X5.0306Y-4.7849
X5.1306Y-2.9149
X5.1306Y-4.7849
X5.2306Y-2.9149
X5.2306Y-4.7849
X5.3306Y-2.9149
X5.3306Y-4.7849
X5.4306Y-2.9149
X5.4306Y-4.7849
X5.5306Y-2.9149
X5.5306Y-4.7849
X5.6306Y-2.9149
X5.6306Y-4.7849
X5.7306Y-2.9149
X5.7306Y-4.7849
T3
X6.4628Y-4.2716
X6.4628Y-4.3716
X6.5628Y-4.2716
X6.5628Y-4.3716
X6.6628Y-4.2716
X6.6628Y-4.3716
X6.7628Y-4.2716
X6.7628Y-4.3716
X6.8628Y-4.2716
X6.8628Y-4.3716
X6.9628Y-4.2716
X6.9628Y-4.3716
X7.0628Y-4.2716
X7.0628Y-4.3716
X7.1628Y-4.2716
X7.1628Y-4.3716
X7.2628Y-4.2716
X7.2628Y-4.3716
X7.3628Y-4.2716
X7.3628Y-4.3716
T4
X3.3931Y-2.8543
X3.3931Y-4.9015
X7.6057Y-2.8543
X7.6057Y-4.9015
T0
M30
