%TF.GenerationSoftware,KiCad,Pcbnew,(5.1.10)-1*%
%TF.CreationDate,2022-03-09T11:46:58-05:00*%
%TF.ProjectId,PacMan-display,5061634d-616e-42d6-9469-73706c61792e,1.0*%
%TF.SameCoordinates,Original*%
%TF.FileFunction,Copper,L1,Top*%
%TF.FilePolarity,Positive*%
%FSLAX46Y46*%
G04 Gerber Fmt 4.6, Leading zero omitted, Abs format (unit mm)*
G04 Created by KiCad (PCBNEW (5.1.10)-1) date 2022-03-09 11:46:58*
%MOMM*%
%LPD*%
G01*
G04 APERTURE LIST*
%TA.AperFunction,ComponentPad*%
%ADD10C,1.524000*%
%TD*%
%TA.AperFunction,ComponentPad*%
%ADD11R,1.524000X1.524000*%
%TD*%
%TA.AperFunction,ComponentPad*%
%ADD12C,1.700000*%
%TD*%
%TA.AperFunction,SMDPad,CuDef*%
%ADD13R,3.000000X1.400000*%
%TD*%
%TA.AperFunction,SMDPad,CuDef*%
%ADD14R,1.400000X3.000000*%
%TD*%
%TA.AperFunction,ViaPad*%
%ADD15C,0.800000*%
%TD*%
%TA.AperFunction,Conductor*%
%ADD16C,0.250000*%
%TD*%
G04 APERTURE END LIST*
%TO.P,R2,2*%
%TO.N,Net-(D2-Pad2)*%
%TA.AperFunction,SMDPad,CuDef*%
G36*
G01*
X168233999Y-119898000D02*
X169134001Y-119898000D01*
G75*
G02*
X169384000Y-120147999I0J-249999D01*
G01*
X169384000Y-120848001D01*
G75*
G02*
X169134001Y-121098000I-249999J0D01*
G01*
X168233999Y-121098000D01*
G75*
G02*
X167984000Y-120848001I0J249999D01*
G01*
X167984000Y-120147999D01*
G75*
G02*
X168233999Y-119898000I249999J0D01*
G01*
G37*
%TD.AperFunction*%
%TO.P,R2,1*%
%TO.N,/TS_ACTIVE*%
%TA.AperFunction,SMDPad,CuDef*%
G36*
G01*
X168233999Y-117898000D02*
X169134001Y-117898000D01*
G75*
G02*
X169384000Y-118147999I0J-249999D01*
G01*
X169384000Y-118848001D01*
G75*
G02*
X169134001Y-119098000I-249999J0D01*
G01*
X168233999Y-119098000D01*
G75*
G02*
X167984000Y-118848001I0J249999D01*
G01*
X167984000Y-118147999D01*
G75*
G02*
X168233999Y-117898000I249999J0D01*
G01*
G37*
%TD.AperFunction*%
%TD*%
%TO.P,D2,2*%
%TO.N,Net-(D2-Pad2)*%
%TA.AperFunction,SMDPad,CuDef*%
G36*
G01*
X169134001Y-123073000D02*
X168233999Y-123073000D01*
G75*
G02*
X167984000Y-122823001I0J249999D01*
G01*
X167984000Y-122172999D01*
G75*
G02*
X168233999Y-121923000I249999J0D01*
G01*
X169134001Y-121923000D01*
G75*
G02*
X169384000Y-122172999I0J-249999D01*
G01*
X169384000Y-122823001D01*
G75*
G02*
X169134001Y-123073000I-249999J0D01*
G01*
G37*
%TD.AperFunction*%
%TO.P,D2,1*%
%TO.N,GND*%
%TA.AperFunction,SMDPad,CuDef*%
G36*
G01*
X169134001Y-125123000D02*
X168233999Y-125123000D01*
G75*
G02*
X167984000Y-124873001I0J249999D01*
G01*
X167984000Y-124222999D01*
G75*
G02*
X168233999Y-123973000I249999J0D01*
G01*
X169134001Y-123973000D01*
G75*
G02*
X169384000Y-124222999I0J-249999D01*
G01*
X169384000Y-124873001D01*
G75*
G02*
X169134001Y-125123000I-249999J0D01*
G01*
G37*
%TD.AperFunction*%
%TD*%
%TO.P,D1,2*%
%TO.N,Net-(D1-Pad2)*%
%TA.AperFunction,SMDPad,CuDef*%
G36*
G01*
X162634001Y-123073000D02*
X161733999Y-123073000D01*
G75*
G02*
X161484000Y-122823001I0J249999D01*
G01*
X161484000Y-122172999D01*
G75*
G02*
X161733999Y-121923000I249999J0D01*
G01*
X162634001Y-121923000D01*
G75*
G02*
X162884000Y-122172999I0J-249999D01*
G01*
X162884000Y-122823001D01*
G75*
G02*
X162634001Y-123073000I-249999J0D01*
G01*
G37*
%TD.AperFunction*%
%TO.P,D1,1*%
%TO.N,GND*%
%TA.AperFunction,SMDPad,CuDef*%
G36*
G01*
X162634001Y-125123000D02*
X161733999Y-125123000D01*
G75*
G02*
X161484000Y-124873001I0J249999D01*
G01*
X161484000Y-124222999D01*
G75*
G02*
X161733999Y-123973000I249999J0D01*
G01*
X162634001Y-123973000D01*
G75*
G02*
X162884000Y-124222999I0J-249999D01*
G01*
X162884000Y-124873001D01*
G75*
G02*
X162634001Y-125123000I-249999J0D01*
G01*
G37*
%TD.AperFunction*%
%TD*%
%TO.P,C3,2*%
%TO.N,GND*%
%TA.AperFunction,SMDPad,CuDef*%
G36*
G01*
X177709000Y-119985500D02*
X178659000Y-119985500D01*
G75*
G02*
X178909000Y-120235500I0J-250000D01*
G01*
X178909000Y-120910500D01*
G75*
G02*
X178659000Y-121160500I-250000J0D01*
G01*
X177709000Y-121160500D01*
G75*
G02*
X177459000Y-120910500I0J250000D01*
G01*
X177459000Y-120235500D01*
G75*
G02*
X177709000Y-119985500I250000J0D01*
G01*
G37*
%TD.AperFunction*%
%TO.P,C3,1*%
%TO.N,+3V3*%
%TA.AperFunction,SMDPad,CuDef*%
G36*
G01*
X177709000Y-117910500D02*
X178659000Y-117910500D01*
G75*
G02*
X178909000Y-118160500I0J-250000D01*
G01*
X178909000Y-118835500D01*
G75*
G02*
X178659000Y-119085500I-250000J0D01*
G01*
X177709000Y-119085500D01*
G75*
G02*
X177459000Y-118835500I0J250000D01*
G01*
X177459000Y-118160500D01*
G75*
G02*
X177709000Y-117910500I250000J0D01*
G01*
G37*
%TD.AperFunction*%
%TD*%
D10*
%TO.P,U1,40*%
%TO.N,Net-(U1-Pad40)*%
X145556000Y-121536000D03*
%TO.P,U1,39*%
%TO.N,Net-(U1-Pad39)*%
X143016000Y-121536000D03*
%TO.P,U1,38*%
%TO.N,/DISP_3V3*%
X140476000Y-121536000D03*
%TO.P,U1,37*%
X137936000Y-121536000D03*
%TO.P,U1,36*%
X135396000Y-121536000D03*
%TO.P,U1,35*%
%TO.N,Net-(U1-Pad35)*%
X132856000Y-121536000D03*
%TO.P,U1,34*%
%TO.N,Net-(U1-Pad34)*%
X130316000Y-121536000D03*
%TO.P,U1,33*%
%TO.N,Net-(U1-Pad33)*%
X127776000Y-121536000D03*
%TO.P,U1,32*%
%TO.N,Net-(U1-Pad32)*%
X125236000Y-121536000D03*
%TO.P,U1,31*%
%TO.N,Net-(U1-Pad31)*%
X122696000Y-121536000D03*
%TO.P,U1,30*%
%TO.N,Net-(U1-Pad30)*%
X120156000Y-121536000D03*
%TO.P,U1,29*%
%TO.N,/DISP_RST*%
X117616000Y-121536000D03*
%TO.P,U1,28*%
%TO.N,/DISP_DC*%
X115076000Y-121536000D03*
%TO.P,U1,27*%
%TO.N,/DISP_CS*%
X112536000Y-121536000D03*
%TO.P,U1,26*%
%TO.N,/DISP_MOSI*%
X109996000Y-121536000D03*
%TO.P,U1,25*%
%TO.N,Net-(U1-Pad25)*%
X107456000Y-121536000D03*
%TO.P,U1,24*%
%TO.N,/DISP_CLK*%
X104916000Y-121536000D03*
%TO.P,U1,23*%
%TO.N,/DISP_3V3*%
X102376000Y-121536000D03*
%TO.P,U1,22*%
%TO.N,+3V3*%
X99836000Y-121536000D03*
%TO.P,U1,21*%
%TO.N,GND*%
X97296000Y-121536000D03*
%TO.P,U1,20*%
%TO.N,Net-(U1-Pad20)*%
X145556000Y-74038000D03*
%TO.P,U1,19*%
%TO.N,Net-(U1-Pad19)*%
X143016000Y-74038000D03*
%TO.P,U1,18*%
%TO.N,Net-(U1-Pad18)*%
X140476000Y-74038000D03*
%TO.P,U1,17*%
%TO.N,Net-(U1-Pad17)*%
X137936000Y-74038000D03*
%TO.P,U1,16*%
%TO.N,Net-(U1-Pad16)*%
X135396000Y-74038000D03*
%TO.P,U1,15*%
%TO.N,Net-(U1-Pad15)*%
X132856000Y-74038000D03*
%TO.P,U1,14*%
%TO.N,Net-(U1-Pad14)*%
X130316000Y-74038000D03*
%TO.P,U1,13*%
%TO.N,Net-(U1-Pad13)*%
X127776000Y-74038000D03*
%TO.P,U1,12*%
%TO.N,Net-(U1-Pad12)*%
X125236000Y-74038000D03*
%TO.P,U1,11*%
%TO.N,Net-(U1-Pad11)*%
X122696000Y-74038000D03*
%TO.P,U1,10*%
%TO.N,Net-(U1-Pad10)*%
X120156000Y-74038000D03*
%TO.P,U1,9*%
%TO.N,Net-(U1-Pad9)*%
X117616000Y-74038000D03*
%TO.P,U1,8*%
%TO.N,Net-(U1-Pad8)*%
X115076000Y-74038000D03*
%TO.P,U1,7*%
%TO.N,Net-(U1-Pad7)*%
X112536000Y-74038000D03*
%TO.P,U1,6*%
%TO.N,Net-(U1-Pad6)*%
X109996000Y-74038000D03*
%TO.P,U1,5*%
%TO.N,Net-(U1-Pad5)*%
X107456000Y-74038000D03*
%TO.P,U1,4*%
%TO.N,Net-(U1-Pad4)*%
X104916000Y-74038000D03*
%TO.P,U1,3*%
%TO.N,Net-(U1-Pad3)*%
X102376000Y-74038000D03*
%TO.P,U1,2*%
%TO.N,Net-(U1-Pad2)*%
X99836000Y-74038000D03*
D11*
%TO.P,U1,1*%
%TO.N,Net-(U1-Pad1)*%
X97296000Y-74038000D03*
%TD*%
%TO.P,R1,2*%
%TO.N,Net-(D1-Pad2)*%
%TA.AperFunction,SMDPad,CuDef*%
G36*
G01*
X161733999Y-119898000D02*
X162634001Y-119898000D01*
G75*
G02*
X162884000Y-120147999I0J-249999D01*
G01*
X162884000Y-120848001D01*
G75*
G02*
X162634001Y-121098000I-249999J0D01*
G01*
X161733999Y-121098000D01*
G75*
G02*
X161484000Y-120848001I0J249999D01*
G01*
X161484000Y-120147999D01*
G75*
G02*
X161733999Y-119898000I249999J0D01*
G01*
G37*
%TD.AperFunction*%
%TO.P,R1,1*%
%TO.N,+24V*%
%TA.AperFunction,SMDPad,CuDef*%
G36*
G01*
X161733999Y-117898000D02*
X162634001Y-117898000D01*
G75*
G02*
X162884000Y-118147999I0J-249999D01*
G01*
X162884000Y-118848001D01*
G75*
G02*
X162634001Y-119098000I-249999J0D01*
G01*
X161733999Y-119098000D01*
G75*
G02*
X161484000Y-118848001I0J249999D01*
G01*
X161484000Y-118147999D01*
G75*
G02*
X161733999Y-117898000I249999J0D01*
G01*
G37*
%TD.AperFunction*%
%TD*%
D12*
%TO.P,J1,20*%
%TO.N,GND*%
X187014000Y-111038000D03*
%TO.P,J1,18*%
X184474000Y-111038000D03*
%TO.P,J1,16*%
X181934000Y-111038000D03*
%TO.P,J1,14*%
X179394000Y-111038000D03*
%TO.P,J1,12*%
X176854000Y-111038000D03*
%TO.P,J1,10*%
%TO.N,/DISP_CLK*%
X174314000Y-111038000D03*
%TO.P,J1,8*%
%TO.N,+3V3*%
X171774000Y-111038000D03*
%TO.P,J1,6*%
%TO.N,Net-(J1-Pad6)*%
X169234000Y-111038000D03*
%TO.P,J1,4*%
%TO.N,Net-(J1-Pad4)*%
X166694000Y-111038000D03*
%TO.P,J1,2*%
%TO.N,+24V*%
X164154000Y-111038000D03*
%TO.P,J1,19*%
%TO.N,/DISP_MOSI*%
X187014000Y-108498000D03*
%TO.P,J1,17*%
%TO.N,/DISP_DC*%
X184474000Y-108498000D03*
%TO.P,J1,15*%
%TO.N,/DISP_RST*%
X181934000Y-108498000D03*
%TO.P,J1,13*%
%TO.N,/TS_ACTIVE*%
X179394000Y-108498000D03*
%TO.P,J1,11*%
%TO.N,/DISP_CS*%
X176854000Y-108498000D03*
%TO.P,J1,9*%
%TO.N,/BTN_RIGHT*%
X174314000Y-108498000D03*
%TO.P,J1,7*%
%TO.N,/BTN_CENTER*%
X171774000Y-108498000D03*
%TO.P,J1,5*%
%TO.N,/BTN_DOWN*%
X169234000Y-108498000D03*
%TO.P,J1,3*%
%TO.N,/BTN_UP*%
X166694000Y-108498000D03*
%TO.P,J1,1*%
%TO.N,/BTN_LEFT*%
%TA.AperFunction,ComponentPad*%
G36*
G01*
X163554000Y-107648000D02*
X164754000Y-107648000D01*
G75*
G02*
X165004000Y-107898000I0J-250000D01*
G01*
X165004000Y-109098000D01*
G75*
G02*
X164754000Y-109348000I-250000J0D01*
G01*
X163554000Y-109348000D01*
G75*
G02*
X163304000Y-109098000I0J250000D01*
G01*
X163304000Y-107898000D01*
G75*
G02*
X163554000Y-107648000I250000J0D01*
G01*
G37*
%TD.AperFunction*%
%TD*%
%TO.P,C2,2*%
%TO.N,GND*%
%TA.AperFunction,SMDPad,CuDef*%
G36*
G01*
X172709000Y-119985500D02*
X173659000Y-119985500D01*
G75*
G02*
X173909000Y-120235500I0J-250000D01*
G01*
X173909000Y-120910500D01*
G75*
G02*
X173659000Y-121160500I-250000J0D01*
G01*
X172709000Y-121160500D01*
G75*
G02*
X172459000Y-120910500I0J250000D01*
G01*
X172459000Y-120235500D01*
G75*
G02*
X172709000Y-119985500I250000J0D01*
G01*
G37*
%TD.AperFunction*%
%TO.P,C2,1*%
%TO.N,/TS_ACTIVE*%
%TA.AperFunction,SMDPad,CuDef*%
G36*
G01*
X172709000Y-117910500D02*
X173659000Y-117910500D01*
G75*
G02*
X173909000Y-118160500I0J-250000D01*
G01*
X173909000Y-118835500D01*
G75*
G02*
X173659000Y-119085500I-250000J0D01*
G01*
X172709000Y-119085500D01*
G75*
G02*
X172459000Y-118835500I0J250000D01*
G01*
X172459000Y-118160500D01*
G75*
G02*
X172709000Y-117910500I250000J0D01*
G01*
G37*
%TD.AperFunction*%
%TD*%
%TO.P,C1,2*%
%TO.N,GND*%
%TA.AperFunction,SMDPad,CuDef*%
G36*
G01*
X157583998Y-120960500D02*
X159784002Y-120960500D01*
G75*
G02*
X160034000Y-121210498I0J-249998D01*
G01*
X160034000Y-122035502D01*
G75*
G02*
X159784002Y-122285500I-249998J0D01*
G01*
X157583998Y-122285500D01*
G75*
G02*
X157334000Y-122035502I0J249998D01*
G01*
X157334000Y-121210498D01*
G75*
G02*
X157583998Y-120960500I249998J0D01*
G01*
G37*
%TD.AperFunction*%
%TO.P,C1,1*%
%TO.N,+24V*%
%TA.AperFunction,SMDPad,CuDef*%
G36*
G01*
X157583998Y-117835500D02*
X159784002Y-117835500D01*
G75*
G02*
X160034000Y-118085498I0J-249998D01*
G01*
X160034000Y-118910502D01*
G75*
G02*
X159784002Y-119160500I-249998J0D01*
G01*
X157583998Y-119160500D01*
G75*
G02*
X157334000Y-118910502I0J249998D01*
G01*
X157334000Y-118085498D01*
G75*
G02*
X157583998Y-117835500I249998J0D01*
G01*
G37*
%TD.AperFunction*%
%TD*%
D13*
%TO.P,BTN5,1*%
%TO.N,GND*%
X180184000Y-83898000D03*
%TO.P,BTN5,2*%
%TO.N,/BTN_CENTER*%
X180184000Y-88298000D03*
X170984000Y-88298000D03*
%TO.P,BTN5,1*%
%TO.N,GND*%
X170984000Y-83898000D03*
%TD*%
%TO.P,BTN4,1*%
%TO.N,GND*%
X180184000Y-95898000D03*
%TO.P,BTN4,2*%
%TO.N,/BTN_DOWN*%
X180184000Y-100298000D03*
X170984000Y-100298000D03*
%TO.P,BTN4,1*%
%TO.N,GND*%
X170984000Y-95898000D03*
%TD*%
%TO.P,BTN3,1*%
%TO.N,GND*%
X180184000Y-72498000D03*
%TO.P,BTN3,2*%
%TO.N,/BTN_UP*%
X180184000Y-76898000D03*
X170984000Y-76898000D03*
%TO.P,BTN3,1*%
%TO.N,GND*%
X170984000Y-72498000D03*
%TD*%
D14*
%TO.P,BTN2,1*%
%TO.N,GND*%
X191184000Y-90698000D03*
%TO.P,BTN2,2*%
%TO.N,/BTN_RIGHT*%
X186784000Y-90698000D03*
X186784000Y-81498000D03*
%TO.P,BTN2,1*%
%TO.N,GND*%
X191184000Y-81498000D03*
%TD*%
%TO.P,BTN1,1*%
%TO.N,GND*%
X164184000Y-90698000D03*
%TO.P,BTN1,2*%
%TO.N,/BTN_LEFT*%
X159784000Y-90698000D03*
X159784000Y-81498000D03*
%TO.P,BTN1,1*%
%TO.N,GND*%
X164184000Y-81498000D03*
%TD*%
D15*
%TO.N,+3V3*%
X107184000Y-123498000D03*
%TO.N,/DISP_CS*%
X120859000Y-105498000D03*
X112484000Y-105498000D03*
%TO.N,/TS_ACTIVE*%
X175684000Y-117998000D03*
X189684000Y-105998000D03*
%TD*%
D16*
%TO.N,GND*%
X158684000Y-121623000D02*
X158684000Y-124498000D01*
X187014000Y-111038000D02*
X176854000Y-111038000D01*
X173184000Y-120573000D02*
X177184000Y-120573000D01*
X173134000Y-120623000D02*
X173184000Y-120573000D01*
X187014000Y-120318000D02*
X186759000Y-120573000D01*
X187014000Y-111038000D02*
X187014000Y-120318000D01*
X177184000Y-120573000D02*
X186759000Y-120573000D01*
X97296000Y-124410000D02*
X97296000Y-121536000D01*
X97384000Y-124498000D02*
X97296000Y-124410000D01*
X158684000Y-124498000D02*
X97384000Y-124498000D01*
X170984000Y-72498000D02*
X166184000Y-72498000D01*
X164184000Y-74498000D02*
X164184000Y-81498000D01*
X166184000Y-72498000D02*
X164184000Y-74498000D01*
X187014000Y-111038000D02*
X190644000Y-111038000D01*
X191184000Y-110498000D02*
X191184000Y-106868000D01*
X190644000Y-111038000D02*
X191184000Y-110498000D01*
X191184000Y-106868000D02*
X191184000Y-90698000D01*
X180184000Y-95898000D02*
X191184000Y-95898000D01*
X180184000Y-72498000D02*
X186184000Y-72498000D01*
X186184000Y-72498000D02*
X191184000Y-77498000D01*
X191184000Y-77498000D02*
X191184000Y-81498000D01*
X180184000Y-83898000D02*
X180184000Y-82498000D01*
X185184000Y-77498000D02*
X191184000Y-77498000D01*
X180184000Y-82498000D02*
X185184000Y-77498000D01*
X158684000Y-124498000D02*
X162134000Y-124498000D01*
X162134000Y-124498000D02*
X162184000Y-124548000D01*
X173184000Y-124498000D02*
X173184000Y-120573000D01*
X162184000Y-124498000D02*
X173184000Y-124498000D01*
%TO.N,/BTN_LEFT*%
X164154000Y-108498000D02*
X164154000Y-102968000D01*
X159784000Y-98598000D02*
X159784000Y-90698000D01*
X164154000Y-102968000D02*
X159784000Y-98598000D01*
%TO.N,/BTN_RIGHT*%
X177984000Y-90698000D02*
X186784000Y-90698000D01*
X176684000Y-91998000D02*
X177984000Y-90698000D01*
X176684000Y-102498000D02*
X176684000Y-91998000D01*
X174314000Y-104868000D02*
X176684000Y-102498000D01*
X174314000Y-108498000D02*
X174314000Y-104868000D01*
%TO.N,/BTN_UP*%
X170984000Y-76898000D02*
X168584000Y-76898000D01*
X168584000Y-76898000D02*
X168084000Y-77398000D01*
X166694000Y-78788000D02*
X168084000Y-77398000D01*
X166694000Y-108498000D02*
X166694000Y-78788000D01*
%TO.N,/BTN_DOWN*%
X169234000Y-108498000D02*
X169234000Y-102948000D01*
X170984000Y-101198000D02*
X170984000Y-100298000D01*
X169234000Y-102948000D02*
X170984000Y-101198000D01*
%TO.N,/BTN_CENTER*%
X171774000Y-108498000D02*
X171774000Y-104408000D01*
X171774000Y-104408000D02*
X174184000Y-101998000D01*
X174184000Y-91498000D02*
X170984000Y-88298000D01*
X174184000Y-101998000D02*
X174184000Y-91498000D01*
%TO.N,+24V*%
X158684000Y-118498000D02*
X162184000Y-118498000D01*
X164154000Y-115198000D02*
X162184000Y-117168000D01*
X162184000Y-118498000D02*
X162184000Y-117168000D01*
X164154000Y-111038000D02*
X164154000Y-115198000D01*
%TO.N,+3V3*%
X171774000Y-111038000D02*
X171724000Y-111038000D01*
X172184000Y-111448000D02*
X171774000Y-111038000D01*
X173084000Y-116398000D02*
X171784000Y-115098000D01*
X176184000Y-116398000D02*
X173084000Y-116398000D01*
X171784000Y-115098000D02*
X171784000Y-111098000D01*
X99825200Y-123498000D02*
X99836000Y-121536000D01*
X107184000Y-123498000D02*
X99825200Y-123498000D01*
X177084000Y-116398000D02*
X176184000Y-116398000D01*
X178184000Y-117498000D02*
X177084000Y-116398000D01*
X178184000Y-118498000D02*
X178184000Y-117498000D01*
%TO.N,Net-(D1-Pad2)*%
X162184000Y-120498000D02*
X162184000Y-122498000D01*
%TO.N,/DISP_CS*%
X112484000Y-105498000D02*
X112484000Y-105498000D01*
X112484000Y-105498000D02*
X120859000Y-105498000D01*
%TO.N,/DISP_3V3*%
X140184000Y-121244000D02*
X140476000Y-121536000D01*
X140476000Y-121536000D02*
X140476000Y-119790000D01*
X140476000Y-119790000D02*
X139684000Y-118998000D01*
X102376000Y-119806000D02*
X103184000Y-118998000D01*
X102376000Y-121536000D02*
X102376000Y-119806000D01*
X103184000Y-118998000D02*
X135184000Y-118998000D01*
X137936000Y-121536000D02*
X137936000Y-119250000D01*
X137936000Y-119250000D02*
X137684000Y-118998000D01*
X137684000Y-118998000D02*
X139684000Y-118998000D01*
X135184000Y-118998000D02*
X137684000Y-118998000D01*
X135396000Y-121536000D02*
X135396000Y-119210000D01*
X135396000Y-119210000D02*
X135184000Y-118998000D01*
%TO.N,/TS_ACTIVE*%
X168194000Y-118008000D02*
X168684000Y-118498000D01*
X173184000Y-118498000D02*
X168684000Y-118498000D01*
X179394000Y-108498000D02*
X179394000Y-106708000D01*
X175184000Y-118498000D02*
X175684000Y-117998000D01*
X173184000Y-118498000D02*
X175184000Y-118498000D01*
X180104000Y-105998000D02*
X179394000Y-106708000D01*
X189684000Y-105998000D02*
X180104000Y-105998000D01*
%TO.N,Net-(D2-Pad2)*%
X168684000Y-122498000D02*
X168684000Y-120498000D01*
%TD*%
M02*
