%TF.GenerationSoftware,KiCad,Pcbnew,(5.1.10)-1*%
%TF.CreationDate,2022-03-09T11:46:58-05:00*%
%TF.ProjectId,PacMan-display,5061634d-616e-42d6-9469-73706c61792e,1.0*%
%TF.SameCoordinates,Original*%
%TF.FileFunction,Copper,L2,Bot*%
%TF.FilePolarity,Positive*%
%FSLAX46Y46*%
G04 Gerber Fmt 4.6, Leading zero omitted, Abs format (unit mm)*
G04 Created by KiCad (PCBNEW (5.1.10)-1) date 2022-03-09 11:46:58*
%MOMM*%
%LPD*%
G01*
G04 APERTURE LIST*
%TA.AperFunction,NonConductor*%
%ADD10C,0.150000*%
%TD*%
%TA.AperFunction,ComponentPad*%
%ADD11C,1.524000*%
%TD*%
%TA.AperFunction,ComponentPad*%
%ADD12R,1.524000X1.524000*%
%TD*%
%TA.AperFunction,ComponentPad*%
%ADD13C,1.700000*%
%TD*%
%TA.AperFunction,ViaPad*%
%ADD14C,0.800000*%
%TD*%
%TA.AperFunction,Conductor*%
%ADD15C,0.250000*%
%TD*%
G04 APERTURE END LIST*
D10*
X187562690Y-82950380D02*
X187562690Y-83664666D01*
X187610309Y-83807523D01*
X187705547Y-83902761D01*
X187848404Y-83950380D01*
X187943642Y-83950380D01*
X186657928Y-83283714D02*
X186657928Y-83950380D01*
X187086500Y-83283714D02*
X187086500Y-83807523D01*
X187038880Y-83902761D01*
X186943642Y-83950380D01*
X186800785Y-83950380D01*
X186705547Y-83902761D01*
X186657928Y-83855142D01*
X186229357Y-83902761D02*
X186134119Y-83950380D01*
X185943642Y-83950380D01*
X185848404Y-83902761D01*
X185800785Y-83807523D01*
X185800785Y-83759904D01*
X185848404Y-83664666D01*
X185943642Y-83617047D01*
X186086500Y-83617047D01*
X186181738Y-83569428D01*
X186229357Y-83474190D01*
X186229357Y-83426571D01*
X186181738Y-83331333D01*
X186086500Y-83283714D01*
X185943642Y-83283714D01*
X185848404Y-83331333D01*
X185515071Y-83283714D02*
X185134119Y-83283714D01*
X185372214Y-82950380D02*
X185372214Y-83807523D01*
X185324595Y-83902761D01*
X185229357Y-83950380D01*
X185134119Y-83950380D01*
X184800785Y-83950380D02*
X184800785Y-83283714D01*
X184800785Y-82950380D02*
X184848404Y-82998000D01*
X184800785Y-83045619D01*
X184753166Y-82998000D01*
X184800785Y-82950380D01*
X184800785Y-83045619D01*
X184324595Y-83283714D02*
X184324595Y-83950380D01*
X184324595Y-83378952D02*
X184276976Y-83331333D01*
X184181738Y-83283714D01*
X184038880Y-83283714D01*
X183943642Y-83331333D01*
X183896023Y-83426571D01*
X183896023Y-83950380D01*
X182657928Y-83950380D02*
X182657928Y-82950380D01*
X182086500Y-83950380D02*
X182515071Y-83378952D01*
X182086500Y-82950380D02*
X182657928Y-83521809D01*
X181515071Y-83950380D02*
X181610309Y-83902761D01*
X181657928Y-83855142D01*
X181705547Y-83759904D01*
X181705547Y-83474190D01*
X181657928Y-83378952D01*
X181610309Y-83331333D01*
X181515071Y-83283714D01*
X181372214Y-83283714D01*
X181276976Y-83331333D01*
X181229357Y-83378952D01*
X181181738Y-83474190D01*
X181181738Y-83759904D01*
X181229357Y-83855142D01*
X181276976Y-83902761D01*
X181372214Y-83950380D01*
X181515071Y-83950380D01*
X180324595Y-83283714D02*
X180324595Y-84093238D01*
X180372214Y-84188476D01*
X180419833Y-84236095D01*
X180515071Y-84283714D01*
X180657928Y-84283714D01*
X180753166Y-84236095D01*
X180324595Y-83902761D02*
X180419833Y-83950380D01*
X180610309Y-83950380D01*
X180705547Y-83902761D01*
X180753166Y-83855142D01*
X180800785Y-83759904D01*
X180800785Y-83474190D01*
X180753166Y-83378952D01*
X180705547Y-83331333D01*
X180610309Y-83283714D01*
X180419833Y-83283714D01*
X180324595Y-83331333D01*
X179419833Y-83950380D02*
X179419833Y-83426571D01*
X179467452Y-83331333D01*
X179562690Y-83283714D01*
X179753166Y-83283714D01*
X179848404Y-83331333D01*
X179419833Y-83902761D02*
X179515071Y-83950380D01*
X179753166Y-83950380D01*
X179848404Y-83902761D01*
X179896023Y-83807523D01*
X179896023Y-83712285D01*
X179848404Y-83617047D01*
X179753166Y-83569428D01*
X179515071Y-83569428D01*
X179419833Y-83521809D01*
X178991261Y-83902761D02*
X178896023Y-83950380D01*
X178705547Y-83950380D01*
X178610309Y-83902761D01*
X178562690Y-83807523D01*
X178562690Y-83759904D01*
X178610309Y-83664666D01*
X178705547Y-83617047D01*
X178848404Y-83617047D01*
X178943642Y-83569428D01*
X178991261Y-83474190D01*
X178991261Y-83426571D01*
X178943642Y-83331333D01*
X178848404Y-83283714D01*
X178705547Y-83283714D01*
X178610309Y-83331333D01*
X177705547Y-83950380D02*
X177705547Y-83426571D01*
X177753166Y-83331333D01*
X177848404Y-83283714D01*
X178038880Y-83283714D01*
X178134119Y-83331333D01*
X177705547Y-83902761D02*
X177800785Y-83950380D01*
X178038880Y-83950380D01*
X178134119Y-83902761D01*
X178181738Y-83807523D01*
X178181738Y-83712285D01*
X178134119Y-83617047D01*
X178038880Y-83569428D01*
X177800785Y-83569428D01*
X177705547Y-83521809D01*
X177229357Y-83950380D02*
X177229357Y-82950380D01*
X177134119Y-83569428D02*
X176848404Y-83950380D01*
X176848404Y-83283714D02*
X177229357Y-83664666D01*
X175991261Y-83950380D02*
X175991261Y-83426571D01*
X176038880Y-83331333D01*
X176134119Y-83283714D01*
X176324595Y-83283714D01*
X176419833Y-83331333D01*
X175991261Y-83902761D02*
X176086500Y-83950380D01*
X176324595Y-83950380D01*
X176419833Y-83902761D01*
X176467452Y-83807523D01*
X176467452Y-83712285D01*
X176419833Y-83617047D01*
X176324595Y-83569428D01*
X176086500Y-83569428D01*
X175991261Y-83521809D01*
X187848404Y-77125380D02*
X187848404Y-76125380D01*
X187467452Y-76125380D01*
X187372214Y-76173000D01*
X187324595Y-76220619D01*
X187276976Y-76315857D01*
X187276976Y-76458714D01*
X187324595Y-76553952D01*
X187372214Y-76601571D01*
X187467452Y-76649190D01*
X187848404Y-76649190D01*
X186419833Y-77125380D02*
X186419833Y-76601571D01*
X186467452Y-76506333D01*
X186562690Y-76458714D01*
X186753166Y-76458714D01*
X186848404Y-76506333D01*
X186419833Y-77077761D02*
X186515071Y-77125380D01*
X186753166Y-77125380D01*
X186848404Y-77077761D01*
X186896023Y-76982523D01*
X186896023Y-76887285D01*
X186848404Y-76792047D01*
X186753166Y-76744428D01*
X186515071Y-76744428D01*
X186419833Y-76696809D01*
X185515071Y-77077761D02*
X185610309Y-77125380D01*
X185800785Y-77125380D01*
X185896023Y-77077761D01*
X185943642Y-77030142D01*
X185991261Y-76934904D01*
X185991261Y-76649190D01*
X185943642Y-76553952D01*
X185896023Y-76506333D01*
X185800785Y-76458714D01*
X185610309Y-76458714D01*
X185515071Y-76506333D01*
X185086500Y-77125380D02*
X185086500Y-76125380D01*
X184753166Y-76839666D01*
X184419833Y-76125380D01*
X184419833Y-77125380D01*
X183515071Y-77125380D02*
X183515071Y-76601571D01*
X183562690Y-76506333D01*
X183657928Y-76458714D01*
X183848404Y-76458714D01*
X183943642Y-76506333D01*
X183515071Y-77077761D02*
X183610309Y-77125380D01*
X183848404Y-77125380D01*
X183943642Y-77077761D01*
X183991261Y-76982523D01*
X183991261Y-76887285D01*
X183943642Y-76792047D01*
X183848404Y-76744428D01*
X183610309Y-76744428D01*
X183515071Y-76696809D01*
X183038880Y-76458714D02*
X183038880Y-77125380D01*
X183038880Y-76553952D02*
X182991261Y-76506333D01*
X182896023Y-76458714D01*
X182753166Y-76458714D01*
X182657928Y-76506333D01*
X182610309Y-76601571D01*
X182610309Y-77125380D01*
X181372214Y-77125380D02*
X181372214Y-76125380D01*
X181134119Y-76125380D01*
X180991261Y-76173000D01*
X180896023Y-76268238D01*
X180848404Y-76363476D01*
X180800785Y-76553952D01*
X180800785Y-76696809D01*
X180848404Y-76887285D01*
X180896023Y-76982523D01*
X180991261Y-77077761D01*
X181134119Y-77125380D01*
X181372214Y-77125380D01*
X180372214Y-77125380D02*
X180372214Y-76458714D01*
X180372214Y-76125380D02*
X180419833Y-76173000D01*
X180372214Y-76220619D01*
X180324595Y-76173000D01*
X180372214Y-76125380D01*
X180372214Y-76220619D01*
X179943642Y-77077761D02*
X179848404Y-77125380D01*
X179657928Y-77125380D01*
X179562690Y-77077761D01*
X179515071Y-76982523D01*
X179515071Y-76934904D01*
X179562690Y-76839666D01*
X179657928Y-76792047D01*
X179800785Y-76792047D01*
X179896023Y-76744428D01*
X179943642Y-76649190D01*
X179943642Y-76601571D01*
X179896023Y-76506333D01*
X179800785Y-76458714D01*
X179657928Y-76458714D01*
X179562690Y-76506333D01*
X179086500Y-76458714D02*
X179086500Y-77458714D01*
X179086500Y-76506333D02*
X178991261Y-76458714D01*
X178800785Y-76458714D01*
X178705547Y-76506333D01*
X178657928Y-76553952D01*
X178610309Y-76649190D01*
X178610309Y-76934904D01*
X178657928Y-77030142D01*
X178705547Y-77077761D01*
X178800785Y-77125380D01*
X178991261Y-77125380D01*
X179086500Y-77077761D01*
X178038880Y-77125380D02*
X178134119Y-77077761D01*
X178181738Y-76982523D01*
X178181738Y-76125380D01*
X177229357Y-77125380D02*
X177229357Y-76601571D01*
X177276976Y-76506333D01*
X177372214Y-76458714D01*
X177562690Y-76458714D01*
X177657928Y-76506333D01*
X177229357Y-77077761D02*
X177324595Y-77125380D01*
X177562690Y-77125380D01*
X177657928Y-77077761D01*
X177705547Y-76982523D01*
X177705547Y-76887285D01*
X177657928Y-76792047D01*
X177562690Y-76744428D01*
X177324595Y-76744428D01*
X177229357Y-76696809D01*
X176848404Y-76458714D02*
X176610309Y-77125380D01*
X176372214Y-76458714D02*
X176610309Y-77125380D01*
X176705547Y-77363476D01*
X176753166Y-77411095D01*
X176848404Y-77458714D01*
X187515071Y-78251571D02*
X187372214Y-78299190D01*
X187324595Y-78346809D01*
X187276976Y-78442047D01*
X187276976Y-78584904D01*
X187324595Y-78680142D01*
X187372214Y-78727761D01*
X187467452Y-78775380D01*
X187848404Y-78775380D01*
X187848404Y-77775380D01*
X187515071Y-77775380D01*
X187419833Y-77823000D01*
X187372214Y-77870619D01*
X187324595Y-77965857D01*
X187324595Y-78061095D01*
X187372214Y-78156333D01*
X187419833Y-78203952D01*
X187515071Y-78251571D01*
X187848404Y-78251571D01*
X186848404Y-78775380D02*
X186848404Y-78108714D01*
X186848404Y-78299190D02*
X186800785Y-78203952D01*
X186753166Y-78156333D01*
X186657928Y-78108714D01*
X186562690Y-78108714D01*
X185848404Y-78727761D02*
X185943642Y-78775380D01*
X186134119Y-78775380D01*
X186229357Y-78727761D01*
X186276976Y-78632523D01*
X186276976Y-78251571D01*
X186229357Y-78156333D01*
X186134119Y-78108714D01*
X185943642Y-78108714D01*
X185848404Y-78156333D01*
X185800785Y-78251571D01*
X185800785Y-78346809D01*
X186276976Y-78442047D01*
X184943642Y-78775380D02*
X184943642Y-78251571D01*
X184991261Y-78156333D01*
X185086500Y-78108714D01*
X185276976Y-78108714D01*
X185372214Y-78156333D01*
X184943642Y-78727761D02*
X185038880Y-78775380D01*
X185276976Y-78775380D01*
X185372214Y-78727761D01*
X185419833Y-78632523D01*
X185419833Y-78537285D01*
X185372214Y-78442047D01*
X185276976Y-78394428D01*
X185038880Y-78394428D01*
X184943642Y-78346809D01*
X184467452Y-78775380D02*
X184467452Y-77775380D01*
X184372214Y-78394428D02*
X184086500Y-78775380D01*
X184086500Y-78108714D02*
X184467452Y-78489666D01*
X183515071Y-78775380D02*
X183610309Y-78727761D01*
X183657928Y-78680142D01*
X183705547Y-78584904D01*
X183705547Y-78299190D01*
X183657928Y-78203952D01*
X183610309Y-78156333D01*
X183515071Y-78108714D01*
X183372214Y-78108714D01*
X183276976Y-78156333D01*
X183229357Y-78203952D01*
X183181738Y-78299190D01*
X183181738Y-78584904D01*
X183229357Y-78680142D01*
X183276976Y-78727761D01*
X183372214Y-78775380D01*
X183515071Y-78775380D01*
X182324595Y-78108714D02*
X182324595Y-78775380D01*
X182753166Y-78108714D02*
X182753166Y-78632523D01*
X182705547Y-78727761D01*
X182610309Y-78775380D01*
X182467452Y-78775380D01*
X182372214Y-78727761D01*
X182324595Y-78680142D01*
X181991261Y-78108714D02*
X181610309Y-78108714D01*
X181848404Y-77775380D02*
X181848404Y-78632523D01*
X181800785Y-78727761D01*
X181705547Y-78775380D01*
X181610309Y-78775380D01*
X180181738Y-78251571D02*
X180038880Y-78299190D01*
X179991261Y-78346809D01*
X179943642Y-78442047D01*
X179943642Y-78584904D01*
X179991261Y-78680142D01*
X180038880Y-78727761D01*
X180134119Y-78775380D01*
X180515071Y-78775380D01*
X180515071Y-77775380D01*
X180181738Y-77775380D01*
X180086500Y-77823000D01*
X180038880Y-77870619D01*
X179991261Y-77965857D01*
X179991261Y-78061095D01*
X180038880Y-78156333D01*
X180086500Y-78203952D01*
X180181738Y-78251571D01*
X180515071Y-78251571D01*
X179372214Y-78775380D02*
X179467452Y-78727761D01*
X179515071Y-78680142D01*
X179562690Y-78584904D01*
X179562690Y-78299190D01*
X179515071Y-78203952D01*
X179467452Y-78156333D01*
X179372214Y-78108714D01*
X179229357Y-78108714D01*
X179134119Y-78156333D01*
X179086500Y-78203952D01*
X179038880Y-78299190D01*
X179038880Y-78584904D01*
X179086500Y-78680142D01*
X179134119Y-78727761D01*
X179229357Y-78775380D01*
X179372214Y-78775380D01*
X178181738Y-78775380D02*
X178181738Y-78251571D01*
X178229357Y-78156333D01*
X178324595Y-78108714D01*
X178515071Y-78108714D01*
X178610309Y-78156333D01*
X178181738Y-78727761D02*
X178276976Y-78775380D01*
X178515071Y-78775380D01*
X178610309Y-78727761D01*
X178657928Y-78632523D01*
X178657928Y-78537285D01*
X178610309Y-78442047D01*
X178515071Y-78394428D01*
X178276976Y-78394428D01*
X178181738Y-78346809D01*
X177705547Y-78775380D02*
X177705547Y-78108714D01*
X177705547Y-78299190D02*
X177657928Y-78203952D01*
X177610309Y-78156333D01*
X177515071Y-78108714D01*
X177419833Y-78108714D01*
X176657928Y-78775380D02*
X176657928Y-77775380D01*
X176657928Y-78727761D02*
X176753166Y-78775380D01*
X176943642Y-78775380D01*
X177038880Y-78727761D01*
X177086500Y-78680142D01*
X177134119Y-78584904D01*
X177134119Y-78299190D01*
X177086500Y-78203952D01*
X177038880Y-78156333D01*
X176943642Y-78108714D01*
X176753166Y-78108714D01*
X176657928Y-78156333D01*
X175515071Y-78108714D02*
X175276976Y-78775380D01*
X175038880Y-78108714D01*
X174134119Y-78775380D02*
X174705547Y-78775380D01*
X174419833Y-78775380D02*
X174419833Y-77775380D01*
X174515071Y-77918238D01*
X174610309Y-78013476D01*
X174705547Y-78061095D01*
X173705547Y-78680142D02*
X173657928Y-78727761D01*
X173705547Y-78775380D01*
X173753166Y-78727761D01*
X173705547Y-78680142D01*
X173705547Y-78775380D01*
X173038880Y-77775380D02*
X172943642Y-77775380D01*
X172848404Y-77823000D01*
X172800785Y-77870619D01*
X172753166Y-77965857D01*
X172705547Y-78156333D01*
X172705547Y-78394428D01*
X172753166Y-78584904D01*
X172800785Y-78680142D01*
X172848404Y-78727761D01*
X172943642Y-78775380D01*
X173038880Y-78775380D01*
X173134119Y-78727761D01*
X173181738Y-78680142D01*
X173229357Y-78584904D01*
X173276976Y-78394428D01*
X173276976Y-78156333D01*
X173229357Y-77965857D01*
X173181738Y-77870619D01*
X173134119Y-77823000D01*
X173038880Y-77775380D01*
D11*
%TO.P,U1,40*%
%TO.N,Net-(U1-Pad40)*%
X145556000Y-121536000D03*
%TO.P,U1,39*%
%TO.N,Net-(U1-Pad39)*%
X143016000Y-121536000D03*
%TO.P,U1,38*%
%TO.N,/DISP_3V3*%
X140476000Y-121536000D03*
%TO.P,U1,37*%
X137936000Y-121536000D03*
%TO.P,U1,36*%
X135396000Y-121536000D03*
%TO.P,U1,35*%
%TO.N,Net-(U1-Pad35)*%
X132856000Y-121536000D03*
%TO.P,U1,34*%
%TO.N,Net-(U1-Pad34)*%
X130316000Y-121536000D03*
%TO.P,U1,33*%
%TO.N,Net-(U1-Pad33)*%
X127776000Y-121536000D03*
%TO.P,U1,32*%
%TO.N,Net-(U1-Pad32)*%
X125236000Y-121536000D03*
%TO.P,U1,31*%
%TO.N,Net-(U1-Pad31)*%
X122696000Y-121536000D03*
%TO.P,U1,30*%
%TO.N,Net-(U1-Pad30)*%
X120156000Y-121536000D03*
%TO.P,U1,29*%
%TO.N,/DISP_RST*%
X117616000Y-121536000D03*
%TO.P,U1,28*%
%TO.N,/DISP_DC*%
X115076000Y-121536000D03*
%TO.P,U1,27*%
%TO.N,/DISP_CS*%
X112536000Y-121536000D03*
%TO.P,U1,26*%
%TO.N,/DISP_MOSI*%
X109996000Y-121536000D03*
%TO.P,U1,25*%
%TO.N,Net-(U1-Pad25)*%
X107456000Y-121536000D03*
%TO.P,U1,24*%
%TO.N,/DISP_CLK*%
X104916000Y-121536000D03*
%TO.P,U1,23*%
%TO.N,/DISP_3V3*%
X102376000Y-121536000D03*
%TO.P,U1,22*%
%TO.N,+3V3*%
X99836000Y-121536000D03*
%TO.P,U1,21*%
%TO.N,GND*%
X97296000Y-121536000D03*
%TO.P,U1,20*%
%TO.N,Net-(U1-Pad20)*%
X145556000Y-74038000D03*
%TO.P,U1,19*%
%TO.N,Net-(U1-Pad19)*%
X143016000Y-74038000D03*
%TO.P,U1,18*%
%TO.N,Net-(U1-Pad18)*%
X140476000Y-74038000D03*
%TO.P,U1,17*%
%TO.N,Net-(U1-Pad17)*%
X137936000Y-74038000D03*
%TO.P,U1,16*%
%TO.N,Net-(U1-Pad16)*%
X135396000Y-74038000D03*
%TO.P,U1,15*%
%TO.N,Net-(U1-Pad15)*%
X132856000Y-74038000D03*
%TO.P,U1,14*%
%TO.N,Net-(U1-Pad14)*%
X130316000Y-74038000D03*
%TO.P,U1,13*%
%TO.N,Net-(U1-Pad13)*%
X127776000Y-74038000D03*
%TO.P,U1,12*%
%TO.N,Net-(U1-Pad12)*%
X125236000Y-74038000D03*
%TO.P,U1,11*%
%TO.N,Net-(U1-Pad11)*%
X122696000Y-74038000D03*
%TO.P,U1,10*%
%TO.N,Net-(U1-Pad10)*%
X120156000Y-74038000D03*
%TO.P,U1,9*%
%TO.N,Net-(U1-Pad9)*%
X117616000Y-74038000D03*
%TO.P,U1,8*%
%TO.N,Net-(U1-Pad8)*%
X115076000Y-74038000D03*
%TO.P,U1,7*%
%TO.N,Net-(U1-Pad7)*%
X112536000Y-74038000D03*
%TO.P,U1,6*%
%TO.N,Net-(U1-Pad6)*%
X109996000Y-74038000D03*
%TO.P,U1,5*%
%TO.N,Net-(U1-Pad5)*%
X107456000Y-74038000D03*
%TO.P,U1,4*%
%TO.N,Net-(U1-Pad4)*%
X104916000Y-74038000D03*
%TO.P,U1,3*%
%TO.N,Net-(U1-Pad3)*%
X102376000Y-74038000D03*
%TO.P,U1,2*%
%TO.N,Net-(U1-Pad2)*%
X99836000Y-74038000D03*
D12*
%TO.P,U1,1*%
%TO.N,Net-(U1-Pad1)*%
X97296000Y-74038000D03*
%TD*%
D13*
%TO.P,J1,20*%
%TO.N,GND*%
X187014000Y-111038000D03*
%TO.P,J1,18*%
X184474000Y-111038000D03*
%TO.P,J1,16*%
X181934000Y-111038000D03*
%TO.P,J1,14*%
X179394000Y-111038000D03*
%TO.P,J1,12*%
X176854000Y-111038000D03*
%TO.P,J1,10*%
%TO.N,/DISP_CLK*%
X174314000Y-111038000D03*
%TO.P,J1,8*%
%TO.N,+3V3*%
X171774000Y-111038000D03*
%TO.P,J1,6*%
%TO.N,Net-(J1-Pad6)*%
X169234000Y-111038000D03*
%TO.P,J1,4*%
%TO.N,Net-(J1-Pad4)*%
X166694000Y-111038000D03*
%TO.P,J1,2*%
%TO.N,+24V*%
X164154000Y-111038000D03*
%TO.P,J1,19*%
%TO.N,/DISP_MOSI*%
X187014000Y-108498000D03*
%TO.P,J1,17*%
%TO.N,/DISP_DC*%
X184474000Y-108498000D03*
%TO.P,J1,15*%
%TO.N,/DISP_RST*%
X181934000Y-108498000D03*
%TO.P,J1,13*%
%TO.N,/TS_ACTIVE*%
X179394000Y-108498000D03*
%TO.P,J1,11*%
%TO.N,/DISP_CS*%
X176854000Y-108498000D03*
%TO.P,J1,9*%
%TO.N,/BTN_RIGHT*%
X174314000Y-108498000D03*
%TO.P,J1,7*%
%TO.N,/BTN_CENTER*%
X171774000Y-108498000D03*
%TO.P,J1,5*%
%TO.N,/BTN_DOWN*%
X169234000Y-108498000D03*
%TO.P,J1,3*%
%TO.N,/BTN_UP*%
X166694000Y-108498000D03*
%TO.P,J1,1*%
%TO.N,/BTN_LEFT*%
%TA.AperFunction,ComponentPad*%
G36*
G01*
X163554000Y-107648000D02*
X164754000Y-107648000D01*
G75*
G02*
X165004000Y-107898000I0J-250000D01*
G01*
X165004000Y-109098000D01*
G75*
G02*
X164754000Y-109348000I-250000J0D01*
G01*
X163554000Y-109348000D01*
G75*
G02*
X163304000Y-109098000I0J250000D01*
G01*
X163304000Y-107898000D01*
G75*
G02*
X163554000Y-107648000I250000J0D01*
G01*
G37*
%TD.AperFunction*%
%TD*%
D14*
%TO.N,+3V3*%
X107184000Y-123498000D03*
%TO.N,/DISP_CS*%
X120859000Y-105498000D03*
X112484000Y-105498000D03*
%TO.N,/TS_ACTIVE*%
X175684000Y-117998000D03*
X189684000Y-105998000D03*
%TD*%
D15*
%TO.N,+3V3*%
X171774000Y-111038000D02*
X171774000Y-114908000D01*
X171774000Y-114908000D02*
X170184000Y-116498000D01*
X164184000Y-122998000D02*
X163684000Y-123498000D01*
X163684000Y-123498000D02*
X107184000Y-123498000D01*
X165184000Y-116498000D02*
X164184000Y-117498000D01*
X164184000Y-117498000D02*
X164184000Y-122998000D01*
X170184000Y-116498000D02*
X165184000Y-116498000D01*
%TO.N,/DISP_RST*%
X181934000Y-104498000D02*
X117584000Y-104498000D01*
X181934000Y-108208000D02*
X181934000Y-104498000D01*
X117584000Y-104498000D02*
X117616000Y-121536000D01*
%TO.N,/DISP_DC*%
X184484000Y-103498000D02*
X115084000Y-103498000D01*
X184474000Y-108498000D02*
X184484000Y-103498000D01*
X115084000Y-103498000D02*
X115076000Y-121536000D01*
%TO.N,/DISP_CS*%
X176854000Y-108498000D02*
X176854000Y-105498000D01*
X176859000Y-105498000D02*
X120859000Y-105498000D01*
X112484000Y-121484000D02*
X112536000Y-121536000D01*
X112484000Y-105498000D02*
X112484000Y-121484000D01*
%TO.N,/DISP_MOSI*%
X110384000Y-102498000D02*
X109984000Y-102898000D01*
X186784000Y-102498000D02*
X110384000Y-102498000D01*
X109984000Y-102898000D02*
X109996000Y-121536000D01*
X187014000Y-102728000D02*
X186784000Y-102498000D01*
X187014000Y-108498000D02*
X187014000Y-102728000D01*
%TO.N,/DISP_CLK*%
X104926739Y-124098000D02*
X104916000Y-121536000D01*
X166184000Y-117998000D02*
X165684000Y-118498000D01*
X165684000Y-118498000D02*
X165684000Y-123498000D01*
X165684000Y-123498000D02*
X164684000Y-124498000D01*
X105284000Y-124498000D02*
X104927400Y-124096600D01*
X164684000Y-124498000D02*
X105284000Y-124498000D01*
X171184000Y-117998000D02*
X166184000Y-117998000D01*
X174314000Y-114868000D02*
X171184000Y-117998000D01*
X174314000Y-111038000D02*
X174314000Y-114868000D01*
%TO.N,/TS_ACTIVE*%
X175684000Y-117998000D02*
X179684000Y-113998000D01*
X179684000Y-113998000D02*
X185867002Y-113998000D01*
X185867002Y-113998000D02*
X189184000Y-113998000D01*
X189684000Y-113498000D02*
X189684000Y-105998000D01*
X189184000Y-113998000D02*
X189684000Y-113498000D01*
%TD*%
M02*
